if (_typeface_js && _typeface_js.loadFace) _typeface_js.loadFace({"glyphs":{"¦":{"x_min":253,"x_max":444,"ha":694,"o":"m 444 277 l 444 -237 l 253 -237 l 253 277 l 444 277 m 444 971 l 444 457 l 253 457 l 253 971 l 444 971 "},"Ž":{"x_min":47,"x_max":929,"ha":979,"o":"m 47 0 l 47 240 l 509 741 l 62 741 l 62 999 l 904 999 l 904 760 l 435 257 l 929 257 l 929 0 l 47 0 m 272 1337 l 376 1337 l 490 1200 l 603 1337 l 707 1337 l 576 1086 l 402 1086 l 272 1337 "},"Á":{"x_min":-4,"x_max":1023,"ha":1021,"o":"m 408 342 l 609 342 l 509 687 l 408 342 m -4 0 l 347 999 l 671 999 l 1023 0 l 705 0 l 667 132 l 349 132 l 311 0 l -4 0 m 718 1337 l 497 1086 l 393 1086 l 523 1337 l 718 1337 "},"Î":{"x_min":46,"x_max":481,"ha":528,"o":"m 100 0 l 100 999 l 427 999 l 427 0 l 100 0 m 46 1086 l 176 1337 l 350 1337 l 481 1086 l 377 1086 l 264 1220 l 150 1086 l 46 1086 "},"e":{"x_min":40,"x_max":884,"ha":925,"o":"m 334 452 l 595 452 q 557 554 590 520 q 461 589 523 589 q 370 552 403 589 q 334 452 336 516 m 579 219 l 860 219 q 726 36 829 98 q 453 -26 622 -26 q 151 79 263 -26 q 40 363 40 184 q 153 656 40 549 q 464 764 267 764 q 772 647 660 764 q 884 322 884 530 l 884 305 l 334 304 q 371 195 336 233 q 469 157 406 157 q 540 173 512 157 q 579 219 568 189 "},"»":{"x_min":57,"x_max":667,"ha":711,"o":"m 409 638 l 667 471 l 667 264 l 409 96 l 409 283 l 536 367 l 409 450 l 409 638 m 57 638 l 315 471 l 315 264 l 57 96 l 57 283 l 185 367 l 57 450 l 57 638 "},"∆":{"x_min":-4,"x_max":1023,"ha":1021,"o":"m 649 210 l 509 687 l 369 210 l 649 210 m 671 999 l 1023 0 l -4 0 l 347 999 l 671 999 "},"ò":{"x_min":40,"x_max":873,"ha":914,"o":"m 336 370 q 364 222 336 267 q 456 178 392 178 q 550 223 521 178 q 579 370 579 268 q 550 515 579 471 q 456 560 521 560 q 364 515 392 560 q 336 370 336 471 m 40 370 q 151 658 40 553 q 456 764 262 764 q 762 658 651 764 q 873 370 873 553 q 761 79 873 185 q 456 -26 650 -26 q 151 79 262 -26 q 40 370 40 185 m 250 1076 l 444 1076 l 575 825 l 470 825 l 250 1076 "},"^":{"x_min":279,"x_max":1108,"ha":1389,"o":"m 808 991 l 1108 608 l 902 608 l 694 817 l 484 608 l 279 608 l 578 991 l 808 991 "},"«":{"x_min":45,"x_max":655,"ha":711,"o":"m 655 96 l 397 264 l 397 471 l 655 638 l 655 450 l 526 367 l 655 283 l 655 96 m 303 96 l 45 264 l 45 471 l 303 638 l 303 450 l 174 367 l 303 283 l 303 96 "},"∙":{"x_min":82,"x_max":375,"ha":457,"o":"m 82 485 q 124 590 82 548 q 227 633 166 633 q 331 589 288 633 q 375 485 375 546 q 331 382 375 425 q 227 340 288 340 q 124 382 166 340 q 82 485 82 424 "},"í":{"x_min":86,"x_max":441,"ha":469,"o":"m 86 0 l 86 737 l 382 737 l 382 0 l 86 0 m 441 1076 l 220 825 l 116 825 l 246 1076 l 441 1076 "},"ˆ":{"x_min":129,"x_max":564,"ha":694,"o":"m 129 825 l 259 1076 l 433 1076 l 564 825 l 460 825 l 347 959 l 233 825 l 129 825 "},"µ":{"x_min":-20,"x_max":900,"ha":930,"o":"m 408 737 l 351 320 q 349 297 349 305 q 348 284 348 289 q 369 216 348 238 q 434 194 391 194 q 518 229 488 194 q 559 338 549 264 l 616 737 l 900 737 l 792 0 l 543 0 l 555 88 q 499 19 531 42 q 427 -3 467 -3 q 356 18 386 -3 q 308 81 326 39 l 259 -286 l -20 -286 l 122 737 l 408 737 "},"č":{"x_min":40,"x_max":864,"ha":905,"o":"m 571 288 l 864 288 q 747 58 854 142 q 463 -26 640 -26 q 153 80 267 -26 q 40 370 40 186 q 152 658 40 553 q 461 764 265 764 q 747 680 638 764 q 861 457 855 597 l 568 457 q 536 534 563 509 q 459 560 510 560 q 365 514 395 560 q 336 370 336 468 q 364 224 336 270 q 456 178 393 178 q 536 205 507 178 q 571 288 565 233 m 247 1076 l 351 1076 l 465 939 l 578 1076 l 682 1076 l 551 825 l 377 825 l 247 1076 "},"’":{"x_min":82,"x_max":346,"ha":428,"o":"m 346 999 l 346 742 q 277 565 346 632 q 82 481 208 497 l 82 597 q 170 642 143 611 q 197 732 197 673 l 82 732 l 82 999 l 346 999 "},"-":{"x_min":68,"x_max":418,"ha":486,"o":"m 68 243 l 68 504 l 418 504 l 418 243 l 68 243 "},"Q":{"x_min":52,"x_max":1090,"ha":1141,"o":"m 943 -109 l 813 26 q 701 -14 764 0 q 564 -28 638 -28 q 192 114 332 -28 q 52 493 52 256 q 191 882 52 740 q 571 1025 330 1025 q 950 883 811 1025 q 1090 498 1090 742 q 1061 312 1090 398 q 974 149 1032 225 l 1090 31 l 943 -109 m 631 220 l 507 348 l 645 480 l 759 361 q 770 423 766 391 q 775 483 775 454 q 727 714 775 643 q 571 785 679 785 q 416 715 466 785 q 367 498 367 646 q 416 280 367 349 q 573 212 466 212 q 603 214 588 212 q 631 220 617 216 "},"M":{"x_min":94,"x_max":1220,"ha":1315,"o":"m 384 0 l 94 0 l 94 999 l 484 999 l 622 500 q 633 454 625 490 q 656 354 641 417 q 674 441 666 404 q 688 498 682 479 l 830 999 l 1220 999 l 1220 0 l 930 0 l 932 491 q 933 578 932 536 q 934 666 933 621 q 894 497 917 589 l 892 488 l 769 0 l 545 0 l 420 478 q 402 552 411 510 q 379 666 394 594 q 382 556 381 602 q 384 482 384 510 l 384 0 "},"œ":{"x_min":39,"x_max":1376,"ha":1418,"o":"m 826 452 l 1095 452 q 1055 556 1091 519 q 956 593 1019 593 q 862 555 897 593 q 826 452 828 518 m 325 370 q 355 219 325 265 q 453 173 386 173 q 550 219 520 173 q 581 370 581 265 q 551 520 581 474 q 453 566 521 566 q 355 519 385 566 q 325 370 325 473 m 699 72 q 582 -2 644 21 q 443 -26 520 -26 q 149 81 259 -26 q 39 370 39 189 q 149 657 39 550 q 443 764 259 764 q 587 739 523 764 q 704 662 652 714 q 820 739 757 715 q 968 764 884 764 q 1264 645 1153 764 q 1376 328 1376 527 l 1376 305 l 826 304 q 861 197 828 234 q 957 161 895 161 q 1039 174 1010 161 q 1079 219 1068 187 l 1352 219 q 1224 38 1326 103 q 962 -26 1121 -26 q 814 -2 878 -26 q 699 72 751 21 "},"{":{"x_min":98,"x_max":614,"ha":694,"o":"m 614 809 q 598 809 608 809 q 584 810 588 810 q 505 790 525 810 q 485 703 485 769 l 485 542 q 453 413 485 451 q 337 361 421 376 q 453 308 421 345 q 485 181 485 271 l 485 17 q 505 -67 485 -47 q 583 -88 525 -88 q 598 -87 588 -88 q 614 -87 608 -87 l 614 -280 l 559 -280 q 416 -272 465 -280 q 335 -249 366 -265 q 277 -192 294 -229 q 261 -65 261 -155 l 261 109 q 229 231 261 195 q 121 266 197 266 q 110 265 118 266 q 98 265 102 265 l 98 458 q 110 457 102 458 q 121 456 118 456 q 229 491 197 456 q 261 612 261 526 l 261 786 q 277 913 261 876 q 335 971 294 951 q 416 994 367 987 q 559 1002 466 1002 l 614 1002 l 614 809 "},"¼":{"x_min":89,"x_max":1358,"ha":1382,"o":"m 965 237 l 1114 237 l 1114 397 l 965 237 m 1110 0 l 1110 114 l 829 114 l 829 245 l 1114 546 l 1285 546 l 1285 237 l 1358 237 l 1358 114 l 1285 114 l 1285 0 l 1110 0 m 343 -27 l 899 1002 l 1037 1002 l 481 -27 l 343 -27 m 227 429 l 227 746 l 89 746 l 89 859 q 214 886 173 860 q 266 975 255 913 l 406 975 l 406 429 l 227 429 "},"#":{"x_min":-4,"x_max":1072,"ha":1068,"o":"m 641 565 l 479 565 l 426 421 l 588 421 l 641 565 m 636 997 l 548 748 l 702 748 l 789 997 l 985 997 l 898 748 l 1072 748 l 1004 565 l 833 565 l 781 421 l 956 421 l 888 238 l 716 238 l 627 -11 l 431 -11 l 520 238 l 366 238 l 278 -11 l 82 -11 l 170 238 l -4 238 l 63 421 l 235 421 l 286 565 l 111 565 l 177 748 l 352 748 l 440 997 l 636 997 "},"Ê":{"x_min":94,"x_max":912,"ha":968,"o":"m 94 0 l 94 999 l 892 999 l 892 760 l 415 760 l 415 626 l 818 626 l 818 397 l 415 397 l 415 243 l 912 243 l 912 0 l 94 0 m 267 1086 l 397 1337 l 571 1337 l 702 1086 l 598 1086 l 485 1220 l 371 1086 l 267 1086 "},")":{"x_min":52,"x_max":445,"ha":572,"o":"m 52 999 l 294 999 q 407 670 370 824 q 445 377 445 515 q 407 84 445 238 q 294 -244 370 -70 l 52 -244 q 146 76 115 -77 q 178 377 178 229 q 146 677 178 524 q 52 999 115 830 "},"Å":{"x_min":-4,"x_max":1023,"ha":1021,"o":"m 342 1169 q 390 1289 342 1240 q 509 1339 439 1339 q 627 1289 578 1339 q 677 1169 677 1240 q 628 1052 677 1100 q 509 1004 579 1004 q 390 1052 438 1004 q 342 1169 342 1100 m 444 1171 q 463 1125 444 1144 q 510 1106 482 1106 q 555 1125 536 1106 q 575 1171 575 1144 q 555 1217 575 1197 q 510 1237 536 1237 q 463 1217 483 1237 q 444 1171 444 1198 m 410 342 l 609 342 l 510 687 l 410 342 m -4 0 l 337 971 l 681 971 l 1023 0 l 706 0 l 668 132 l 350 132 l 311 0 l -4 0 "},"¸":{"x_min":184,"x_max":554,"ha":694,"o":"m 184 -298 l 184 -204 q 285 -227 238 -219 q 367 -235 332 -235 q 411 -223 396 -235 q 426 -185 426 -211 q 406 -153 426 -164 q 345 -143 387 -143 q 322 -143 331 -143 q 308 -144 314 -143 l 308 0 l 385 0 l 385 -57 l 397 -57 q 513 -90 473 -57 q 554 -187 554 -124 q 509 -292 554 -255 q 381 -329 464 -329 q 290 -321 340 -329 q 184 -298 241 -314 "},"a":{"x_min":57,"x_max":898.875,"ha":957,"o":"m 576 329 q 464 294 534 312 q 355 216 355 265 q 376 167 355 185 q 438 150 398 150 q 545 183 511 150 q 579 291 579 217 q 578 315 579 307 q 576 329 578 322 m 604 0 l 585 70 q 464 -2 529 21 q 318 -26 399 -26 q 125 35 193 -26 q 57 208 57 96 q 124 370 57 317 q 377 446 191 422 q 441 453 401 449 q 580 525 580 468 q 554 571 580 556 q 474 586 529 586 q 404 568 428 586 q 376 513 380 550 l 90 513 q 191 700 92 637 q 484 764 291 764 q 652 747 575 764 q 772 701 729 730 q 845 621 824 666 q 867 494 867 577 l 867 83 q 875 47 867 63 q 898 21 883 31 l 898 0 l 604 0 "},"=":{"x_min":172,"x_max":984,"ha":1157,"o":"m 984 347 l 984 163 l 172 163 l 172 347 l 984 347 m 984 666 l 984 482 l 172 482 l 172 666 l 984 666 "},"˚":{"x_min":164,"x_max":532,"ha":694,"o":"m 270 994 q 292 939 270 961 q 348 917 314 917 q 403 939 380 917 q 426 994 426 962 q 403 1050 426 1027 q 348 1073 380 1073 q 292 1050 315 1073 q 270 994 270 1027 m 164 995 q 216 1125 164 1072 q 347 1179 269 1179 q 478 1125 424 1179 q 532 995 532 1072 q 478 864 532 918 q 347 811 424 811 q 216 864 269 811 q 164 995 164 917 "},"ú":{"x_min":74,"x_max":869,"ha":949,"o":"m 869 737 l 869 0 l 601 0 l 601 108 q 486 11 549 43 q 342 -20 422 -20 q 223 2 275 -20 q 133 68 170 24 q 87 164 101 108 q 74 355 74 221 l 74 737 l 367 737 l 367 356 q 389 240 367 272 q 466 208 411 208 q 548 245 521 208 q 576 357 576 282 l 576 737 l 869 737 m 682 1076 l 461 825 l 357 825 l 487 1076 l 682 1076 "},"¯":{"x_min":139,"x_max":555,"ha":694,"o":"m 139 893 l 139 1007 l 555 1007 l 555 893 l 139 893 "},"Z":{"x_min":47,"x_max":929,"ha":979,"o":"m 47 0 l 47 240 l 509 741 l 62 741 l 62 999 l 904 999 l 904 760 l 435 257 l 929 257 l 929 0 l 47 0 "},"u":{"x_min":74,"x_max":869,"ha":949,"o":"m 869 737 l 869 0 l 601 0 l 601 108 q 486 11 549 43 q 342 -20 422 -20 q 223 2 275 -20 q 133 68 170 24 q 87 164 101 108 q 74 355 74 221 l 74 737 l 367 737 l 367 356 q 389 240 367 272 q 466 208 411 208 q 548 245 521 208 q 576 357 576 282 l 576 737 l 869 737 "},"k":{"x_min":79,"x_max":931,"ha":932,"o":"m 79 0 l 79 999 l 372 999 l 372 511 l 565 737 l 893 737 l 620 465 l 931 0 l 582 0 l 422 263 l 372 212 l 372 0 l 79 0 "},"Ù":{"x_min":92,"x_max":1039,"ha":1132,"o":"m 92 999 l 413 999 l 413 383 q 448 261 413 297 q 567 225 484 225 q 683 260 648 225 q 718 383 718 296 l 718 999 l 1039 999 l 1039 357 q 918 71 1039 170 q 567 -28 797 -28 q 214 71 336 -28 q 92 357 92 170 l 92 999 m 360 1337 l 554 1337 l 685 1086 l 580 1086 l 360 1337 "},"¢":{"x_min":39,"x_max":863,"ha":913,"o":"m 499 562 q 489 564 496 563 q 455 569 463 569 q 356 519 389 569 q 324 371 324 470 q 331 283 324 320 q 353 220 338 246 l 499 562 m 175 -198 l 262 11 q 97 149 155 56 q 39 370 39 242 q 150 658 39 553 q 459 764 262 764 q 518 760 488 764 q 581 751 549 757 l 638 891 l 748 891 l 675 719 q 810 612 765 677 q 858 457 855 548 l 591 457 q 588 478 591 467 q 582 500 586 489 l 443 171 q 453 170 446 171 q 463 170 459 170 q 548 199 518 170 q 584 288 578 229 l 863 288 q 750 58 855 143 q 471 -26 644 -26 q 428 -24 453 -26 q 359 -16 404 -22 l 286 -198 l 175 -198 "},"Ş":{"x_min":47,"x_max":940,"ha":990,"o":"m 47 311 l 359 311 q 405 232 371 256 q 507 209 439 209 q 595 228 563 209 q 628 281 628 247 q 493 370 628 336 q 451 380 465 376 q 275 432 341 408 q 180 476 210 455 q 93 575 122 517 q 65 706 65 632 q 176 940 65 855 q 484 1025 288 1025 q 788 944 677 1025 q 913 712 898 863 l 608 712 q 569 777 600 755 q 479 799 537 799 q 403 782 428 799 q 378 730 378 765 q 509 648 378 681 q 526 643 520 644 q 584 629 545 638 q 812 549 758 584 q 909 448 878 504 q 940 315 940 392 q 824 60 940 149 q 492 -28 708 -28 q 177 60 294 -28 q 47 311 61 149 m 333 -298 l 333 -204 q 434 -227 387 -219 q 516 -235 481 -235 q 560 -223 545 -235 q 575 -185 575 -211 q 555 -153 575 -164 q 494 -143 536 -143 q 471 -143 480 -143 q 457 -144 463 -143 l 457 0 l 534 0 l 534 -57 l 546 -57 q 662 -90 622 -57 q 703 -187 703 -124 q 658 -292 703 -255 q 530 -329 613 -329 q 439 -321 489 -329 q 333 -298 390 -314 "},"é":{"x_min":40,"x_max":884,"ha":925,"o":"m 334 452 l 595 452 q 557 554 590 520 q 461 589 523 589 q 370 552 403 589 q 334 452 336 516 m 579 219 l 860 219 q 726 36 829 98 q 453 -26 622 -26 q 151 79 263 -26 q 40 363 40 184 q 153 656 40 549 q 464 764 267 764 q 772 647 660 764 q 884 322 884 530 l 884 305 l 334 304 q 371 195 336 233 q 469 157 406 157 q 540 173 512 157 q 579 219 568 189 m 675 1076 l 454 825 l 350 825 l 480 1076 l 675 1076 "},"B":{"x_min":94,"x_max":991,"ha":1053,"o":"m 405 233 l 553 233 q 658 254 627 233 q 690 326 690 276 q 658 396 690 375 q 550 418 626 418 l 405 418 l 405 233 m 405 600 l 537 600 q 630 619 603 600 q 658 686 658 639 q 628 753 658 735 q 493 772 599 772 l 405 772 l 405 600 m 94 0 l 94 999 l 503 999 q 695 992 635 999 q 799 969 756 985 q 915 880 875 941 q 956 734 956 820 q 925 616 956 666 q 835 533 895 565 q 952 447 914 504 q 991 299 991 390 q 954 145 991 210 q 846 44 917 80 q 738 10 799 20 q 535 0 676 0 l 94 0 "},"…":{"x_min":84,"x_max":1304,"ha":1389,"o":"m 84 0 l 84 300 l 378 300 l 378 0 l 84 0 m 546 0 l 546 300 l 840 300 l 840 0 l 546 0 m 1010 0 l 1010 300 l 1304 300 l 1304 0 l 1010 0 "},"H":{"x_min":94,"x_max":1035,"ha":1129,"o":"m 94 0 l 94 999 l 415 999 l 415 660 l 714 660 l 714 999 l 1035 999 l 1035 0 l 714 0 l 714 387 l 415 387 l 415 0 l 94 0 "},"î":{"x_min":16,"x_max":451,"ha":469,"o":"m 86 0 l 86 737 l 382 737 l 382 0 l 86 0 m 16 825 l 146 1076 l 320 1076 l 451 825 l 347 825 l 234 959 l 120 825 l 16 825 "},"−":{"x_min":172,"x_max":984,"ha":1157,"o":"m 984 509 l 984 321 l 172 321 l 172 509 l 984 509 "},"≠":{"x_min":172,"x_max":984,"ha":1157,"o":"m 938 756 l 862 662 l 984 662 l 984 486 l 741 486 l 624 343 l 984 343 l 984 165 l 506 165 l 342 -37 l 208 70 l 284 165 l 172 165 l 172 343 l 402 343 l 517 486 l 172 486 l 172 662 l 639 662 l 805 866 l 938 756 "},"¥":{"x_min":18,"x_max":999,"ha":1015,"o":"m 371 0 l 371 340 l 30 340 l 30 469 l 308 469 l 262 550 l 30 550 l 30 679 l 189 679 l 18 974 l 323 974 l 511 609 l 702 974 l 999 974 l 832 679 l 986 679 l 986 550 l 758 550 l 712 469 l 986 469 l 986 340 l 653 340 l 653 0 l 371 0 "},"U":{"x_min":92,"x_max":1039,"ha":1132,"o":"m 92 999 l 413 999 l 413 383 q 448 261 413 297 q 567 225 484 225 q 683 260 648 225 q 718 383 718 296 l 718 999 l 1039 999 l 1039 357 q 918 71 1039 170 q 567 -28 797 -28 q 214 71 336 -28 q 92 357 92 170 l 92 999 "},"Ñ":{"x_min":94,"x_max":1035,"ha":1131,"o":"m 94 0 l 94 999 l 399 999 l 678 534 q 706 478 691 514 q 737 392 720 442 q 731 450 733 418 q 729 527 729 482 l 729 999 l 1035 999 l 1035 0 l 729 0 l 449 461 q 421 518 436 481 q 390 604 405 556 q 396 549 394 577 q 399 467 399 520 l 399 0 l 94 0 m 790 1307 q 734 1176 769 1217 q 641 1134 698 1134 q 614 1136 626 1134 q 589 1142 601 1138 l 527 1159 q 500 1165 512 1163 q 481 1167 489 1167 q 444 1156 458 1167 q 420 1117 430 1144 l 340 1117 q 394 1242 358 1201 q 485 1283 430 1283 q 511 1280 496 1283 q 546 1272 526 1277 l 611 1254 q 628 1250 619 1251 q 649 1248 638 1248 q 686 1263 672 1248 q 709 1307 701 1278 l 790 1307 "},"F":{"x_min":94,"x_max":849,"ha":878,"o":"m 94 0 l 94 999 l 849 999 l 849 747 l 415 747 l 415 592 l 760 592 l 760 351 l 415 351 l 415 0 l 94 0 "},"*":{"x_min":36,"x_max":655,"ha":694,"o":"m 345 569 l 229 400 l 91 499 l 219 661 l 36 712 l 88 873 l 265 810 l 265 999 l 426 999 l 426 810 l 602 872 l 655 711 l 470 662 l 599 499 l 460 402 l 345 569 "},"†":{"x_min":15,"x_max":676,"ha":694,"o":"m 229 -155 l 229 541 l 15 541 l 15 732 l 229 732 l 229 999 l 464 999 l 464 732 l 676 732 l 676 541 l 464 541 l 464 -155 l 229 -155 "},"∕":{"x_min":-232,"x_max":462,"ha":232,"o":"m -232 -27 l 324 1002 l 462 1002 l -94 -27 l -232 -27 "},"°":{"x_min":10,"x_max":447,"ha":457,"o":"m 332 781 q 301 853 332 823 q 227 884 270 884 q 155 853 185 884 q 125 781 125 823 q 155 707 125 737 q 228 677 185 677 q 301 708 271 677 q 332 781 332 739 m 229 999 q 383 935 320 999 q 447 779 447 871 q 382 626 447 690 q 228 562 318 562 q 73 625 137 562 q 10 779 10 688 q 74 934 10 870 q 229 999 139 999 "},"å":{"x_min":57,"x_max":898.875,"ha":957,"o":"m 604 0 l 585 70 q 464 -2 529 21 q 318 -26 399 -26 q 125 35 193 -26 q 57 208 57 96 q 124 370 57 317 q 377 446 191 422 q 441 453 401 449 q 580 525 580 468 q 554 571 580 556 q 474 586 529 586 q 404 568 428 586 q 376 513 380 550 l 90 513 q 191 700 92 637 q 484 764 291 764 q 652 747 575 764 q 772 701 729 730 q 845 621 824 666 q 867 494 867 577 l 867 83 q 875 47 867 63 q 898 21 883 31 l 898 0 l 604 0 m 577 329 q 465 294 535 312 q 355 216 355 265 q 376 167 355 185 q 438 150 398 150 q 545 183 511 150 q 579 291 579 217 q 578 315 579 307 q 577 329 578 322 m 334 964 q 382 1083 334 1034 q 501 1133 431 1133 q 620 1084 571 1133 q 669 964 669 1035 q 620 846 669 894 q 501 798 571 798 q 382 846 431 798 q 334 964 334 895 m 432 963 q 452 918 432 937 q 501 900 472 900 q 550 918 530 900 q 571 963 571 937 q 550 1011 571 991 q 501 1031 529 1031 q 452 1011 472 1031 q 432 963 432 991 "},"0":{"x_min":29,"x_max":885,"ha":913,"o":"m 589 487 q 558 711 589 646 q 455 777 527 777 q 352 712 383 777 q 322 487 322 648 q 352 263 322 327 q 455 200 383 200 q 558 264 527 200 q 589 487 589 328 m 29 487 q 137 871 29 740 q 455 1002 245 1002 q 775 871 666 1002 q 885 487 885 740 q 775 102 885 233 q 455 -28 666 -28 q 137 103 246 -28 q 29 487 29 234 "},"":{"x_min":77,"x_max":1021,"ha":1097,"o":"m 567 824 q 566 834 566 828 q 565 849 565 839 q 630 1005 565 934 q 790 1094 694 1077 q 791 1079 791 1087 q 791 1052 791 1070 q 721 893 791 963 q 583 823 651 823 l 578 823 q 573 824 576 823 q 567 824 570 824 m 1021 273 q 881 40 943 105 q 743 -24 820 -24 q 654 -1 709 -24 q 571 20 599 20 q 482 -1 540 20 q 396 -24 424 -24 q 309 5 353 -24 q 221 95 265 35 q 114 295 152 190 q 77 499 77 401 q 161 741 77 648 q 380 835 246 835 q 485 811 426 835 q 569 788 544 788 q 652 811 592 788 q 755 835 711 835 q 890 808 830 835 q 999 725 950 781 q 896 626 929 681 q 863 502 863 571 q 903 366 863 425 q 1021 273 944 307 "},"”":{"x_min":82,"x_max":688,"ha":770,"o":"m 688 999 l 688 742 q 619 565 688 632 q 424 481 550 497 l 424 597 q 513 642 486 611 q 541 732 541 673 l 424 732 l 424 999 l 688 999 m 346 999 l 346 742 q 277 565 346 632 q 82 481 208 497 l 82 597 q 170 642 143 611 q 197 732 197 673 l 82 732 l 82 999 l 346 999 "},"ö":{"x_min":40,"x_max":873,"ha":914,"o":"m 336 370 q 364 222 336 267 q 456 178 392 178 q 550 223 521 178 q 579 370 579 268 q 550 515 579 471 q 456 560 521 560 q 364 515 392 560 q 336 370 336 471 m 40 370 q 151 658 40 553 q 456 764 262 764 q 762 658 651 764 q 873 370 873 553 q 761 79 873 185 q 456 -26 650 -26 q 151 79 262 -26 q 40 370 40 185 m 495 859 l 495 1042 l 665 1042 l 665 859 l 495 859 m 249 859 l 249 1042 l 419 1042 l 419 859 l 249 859 "},"Õ":{"x_min":52,"x_max":1090,"ha":1141,"o":"m 375 498 q 422 290 375 356 q 571 224 470 224 q 719 290 672 224 q 766 498 766 356 q 719 707 766 641 q 571 774 672 774 q 422 707 470 774 q 375 498 375 641 m 52 498 q 191 883 52 742 q 571 1025 330 1025 q 950 883 811 1025 q 1090 498 1090 742 q 950 113 1090 254 q 571 -28 811 -28 q 191 113 330 -28 q 52 498 52 254 m 796 1307 q 740 1176 775 1217 q 647 1134 704 1134 q 620 1136 632 1134 q 595 1142 607 1138 l 533 1159 q 506 1165 518 1163 q 487 1167 495 1167 q 450 1156 464 1167 q 426 1117 436 1144 l 346 1117 q 400 1242 364 1201 q 491 1283 436 1283 q 517 1280 502 1283 q 552 1272 532 1277 l 617 1254 q 634 1250 625 1251 q 655 1248 644 1248 q 692 1263 678 1248 q 715 1307 707 1278 l 796 1307 "},"ć":{"x_min":40,"x_max":864,"ha":905,"o":"m 571 288 l 864 288 q 747 58 854 142 q 463 -26 640 -26 q 153 80 267 -26 q 40 370 40 186 q 152 658 40 553 q 461 764 265 764 q 747 680 638 764 q 861 457 855 597 l 568 457 q 536 534 563 509 q 459 560 510 560 q 365 514 395 560 q 336 370 336 468 q 364 224 336 270 q 456 178 393 178 q 536 205 507 178 q 571 288 565 233 m 672 1076 l 451 825 l 347 825 l 477 1076 l 672 1076 "},"þ":{"x_min":81,"x_max":900,"ha":940,"o":"m 607 366 q 577 495 607 453 q 489 538 548 538 q 395 496 424 538 q 366 366 366 455 q 396 241 366 283 q 486 200 426 200 q 576 242 546 200 q 607 366 607 284 m 81 -296 l 81 999 l 366 999 l 366 662 q 453 732 399 708 q 579 757 508 757 q 811 649 722 757 q 900 367 900 542 q 812 82 900 190 q 583 -25 725 -25 q 456 -2 508 -25 q 366 69 405 19 l 366 -296 l 81 -296 "},"]":{"x_min":14,"x_max":453,"ha":599,"o":"m 453 999 l 453 -243 l 14 -243 l 14 -32 l 193 -32 l 193 788 l 14 788 l 14 999 l 453 999 "},"8":{"x_min":35,"x_max":874,"ha":913,"o":"m 321 305 q 355 217 321 248 q 454 186 390 186 q 553 217 518 186 q 588 305 588 248 q 552 396 588 363 q 454 430 517 430 q 356 396 391 430 q 321 305 321 363 m 330 696 q 362 617 330 645 q 455 589 395 589 q 545 617 513 589 q 578 696 578 645 q 543 770 578 741 q 455 799 509 799 q 365 770 400 799 q 330 696 330 741 m 192 514 q 96 596 127 547 q 66 714 66 645 q 169 923 66 847 q 454 1000 273 1000 q 739 923 635 1000 q 843 714 843 847 q 812 596 843 645 q 717 514 781 547 q 835 426 796 482 q 874 288 874 371 q 764 56 874 138 q 454 -25 654 -25 q 144 56 254 -25 q 35 288 35 138 q 73 426 35 371 q 192 514 112 482 "},"R":{"x_min":94,"x_max":1025,"ha":1060,"o":"m 411 570 l 556 570 q 662 590 633 570 q 692 662 692 611 q 662 736 692 715 q 548 757 633 757 l 411 757 l 411 570 m 94 0 l 94 999 l 572 999 q 892 931 796 999 q 989 711 989 864 q 949 559 989 620 q 828 464 910 499 q 949 394 911 446 q 990 242 987 342 l 995 103 q 996 99 995 101 q 1025 37 998 40 l 1025 0 l 701 0 q 687 62 692 36 q 683 104 683 89 l 683 204 q 652 313 683 281 q 547 345 622 345 l 411 345 l 411 0 l 94 0 "},"o":{"x_min":40,"x_max":873,"ha":914,"o":"m 336 370 q 364 222 336 267 q 456 178 392 178 q 550 223 521 178 q 579 370 579 268 q 550 515 579 471 q 456 560 521 560 q 364 515 392 560 q 336 370 336 471 m 40 370 q 151 658 40 553 q 456 764 262 764 q 762 658 651 764 q 873 370 873 553 q 761 79 873 185 q 456 -26 650 -26 q 151 79 262 -26 q 40 370 40 185 "},"5":{"x_min":29,"x_max":862,"ha":913,"o":"m 29 258 l 311 286 q 360 219 327 241 q 440 197 392 197 q 540 231 504 197 q 577 327 577 266 q 541 427 577 389 q 448 465 505 465 q 384 451 413 465 q 334 411 355 437 l 69 433 l 165 974 l 784 974 l 784 739 l 362 739 l 334 599 q 423 634 375 623 q 533 645 472 645 q 771 559 681 645 q 862 334 862 474 q 750 67 862 163 q 438 -28 638 -28 q 165 46 273 -28 q 29 258 58 121 "},"õ":{"x_min":40,"x_max":873,"ha":914,"o":"m 336 370 q 364 222 336 267 q 456 178 392 178 q 550 223 521 178 q 579 370 579 268 q 550 515 579 471 q 456 560 521 560 q 364 515 392 560 q 336 370 336 471 m 40 370 q 151 658 40 553 q 456 764 262 764 q 762 658 651 764 q 873 370 873 553 q 761 79 873 185 q 456 -26 650 -26 q 151 79 262 -26 q 40 370 40 185 m 682 1046 q 626 915 661 956 q 533 873 590 873 q 506 875 518 873 q 481 881 493 877 l 419 898 q 392 904 404 902 q 373 906 381 906 q 336 895 350 906 q 312 856 322 883 l 232 856 q 286 981 250 940 q 377 1022 322 1022 q 403 1019 388 1022 q 438 1011 418 1016 l 503 993 q 520 989 511 990 q 541 987 530 987 q 578 1002 564 987 q 601 1046 593 1017 l 682 1046 "},",":{"x_min":81,"x_max":375,"ha":457,"o":"m 81 -249 l 81 -119 q 183 -78 151 -108 q 216 10 216 -47 l 81 10 l 81 300 l 375 300 l 375 5 q 298 -170 375 -104 q 81 -249 222 -236 "},"d":{"x_min":43,"x_max":862,"ha":940,"o":"m 862 0 l 602 0 l 602 90 q 494 2 554 31 q 360 -26 434 -26 q 130 81 218 -26 q 43 365 43 188 q 130 650 43 541 q 357 760 218 760 q 477 734 423 760 q 576 658 531 709 l 576 999 l 862 999 l 862 0 m 457 191 q 546 236 514 191 q 578 361 578 281 q 548 489 578 447 q 457 532 518 532 q 367 490 396 532 q 338 361 338 448 q 369 235 338 280 q 457 191 401 191 "},"\"":{"x_min":46,"x_max":467,"ha":514,"o":"m 467 977 l 467 595 l 292 595 l 292 977 l 467 977 m 221 977 l 221 595 l 46 595 l 46 977 l 221 977 "},"˙":{"x_min":260,"x_max":436,"ha":694,"o":"m 260 856 l 260 1047 l 436 1047 l 436 856 l 260 856 "},"ê":{"x_min":40,"x_max":884,"ha":925,"o":"m 334 452 l 595 452 q 557 554 590 520 q 461 589 523 589 q 370 552 403 589 q 334 452 336 516 m 579 219 l 860 219 q 726 36 829 98 q 453 -26 622 -26 q 151 79 263 -26 q 40 363 40 184 q 153 656 40 549 q 464 764 267 764 q 772 647 660 764 q 884 322 884 530 l 884 305 l 334 304 q 371 195 336 233 q 469 157 406 157 q 540 173 512 157 q 579 219 568 189 m 250 825 l 380 1076 l 554 1076 l 685 825 l 581 825 l 468 959 l 354 825 l 250 825 "},"„":{"x_min":82,"x_max":688,"ha":770,"o":"m 688 277 l 688 21 q 619 -156 688 -88 q 424 -241 550 -224 l 424 -124 q 513 -79 486 -110 q 541 10 541 -48 l 424 10 l 424 277 l 688 277 m 346 277 l 346 21 q 277 -156 346 -88 q 82 -241 208 -224 l 82 -124 q 170 -79 143 -110 q 197 10 197 -48 l 82 10 l 82 277 l 346 277 "},"Â":{"x_min":-4,"x_max":1023,"ha":1021,"o":"m 408 342 l 609 342 l 509 687 l 408 342 m -4 0 l 347 999 l 671 999 l 1023 0 l 705 0 l 667 132 l 349 132 l 311 0 l -4 0 m 293 1086 l 423 1337 l 597 1337 l 728 1086 l 624 1086 l 511 1220 l 397 1086 l 293 1086 "},"Í":{"x_min":100,"x_max":471,"ha":528,"o":"m 100 0 l 100 999 l 427 999 l 427 0 l 100 0 m 471 1337 l 250 1086 l 146 1086 l 276 1337 l 471 1337 "},"´":{"x_min":229,"x_max":554,"ha":694,"o":"m 554 1076 l 333 825 l 229 825 l 359 1076 l 554 1076 "},"Ú":{"x_min":92,"x_max":1039,"ha":1132,"o":"m 92 999 l 413 999 l 413 383 q 448 261 413 297 q 567 225 484 225 q 683 260 648 225 q 718 383 718 296 l 718 999 l 1039 999 l 1039 357 q 918 71 1039 170 q 567 -28 797 -28 q 214 71 336 -28 q 92 357 92 170 l 92 999 m 774 1337 l 553 1086 l 449 1086 l 579 1337 l 774 1337 "},"Ý":{"x_min":-12,"x_max":1035,"ha":1022,"o":"m 355 0 l 355 369 l -12 999 l 342 999 l 515 658 l 688 999 l 1035 999 l 676 369 l 676 0 l 355 0 m 718 1337 l 497 1086 l 393 1086 l 523 1337 l 718 1337 "},"Ω":{"x_min":24,"x_max":1134,"ha":1157,"o":"m 1134 237 l 1134 0 l 685 0 l 685 272 q 753 392 730 327 q 777 530 777 457 q 722 708 777 642 q 578 775 668 775 q 434 708 488 775 q 381 530 381 642 q 404 392 381 457 q 473 272 427 327 l 473 0 l 24 0 l 24 237 l 275 237 q 129 379 178 292 q 81 583 81 465 q 217 902 81 780 q 578 1025 354 1025 q 939 902 802 1025 q 1077 583 1077 779 q 1028 379 1077 465 q 882 237 979 292 l 1134 237 "},"Ö":{"x_min":52,"x_max":1090,"ha":1141,"o":"m 375 498 q 422 290 375 356 q 571 224 470 224 q 719 290 672 224 q 766 498 766 356 q 719 707 766 641 q 571 774 672 774 q 422 707 470 774 q 375 498 375 641 m 52 498 q 191 883 52 742 q 571 1025 330 1025 q 950 883 811 1025 q 1090 498 1090 742 q 950 113 1090 254 q 571 -28 811 -28 q 191 113 330 -28 q 52 498 52 254 m 609 1120 l 609 1303 l 779 1303 l 779 1120 l 609 1120 m 363 1120 l 363 1303 l 533 1303 l 533 1120 l 363 1120 "},"z":{"x_min":18,"x_max":717,"ha":743,"o":"m 18 0 l 18 198 l 353 522 l 47 522 l 47 737 l 700 737 l 700 540 l 372 215 l 717 215 l 717 0 l 18 0 "},"™":{"x_min":111,"x_max":1014,"ha":1157,"o":"m 707 996 l 774 815 l 840 996 l 1014 996 l 1014 617 l 891 617 l 891 866 l 798 617 l 751 617 l 658 866 l 658 617 l 534 617 l 534 996 l 707 996 m 468 996 l 468 894 l 358 894 l 358 617 l 221 617 l 221 894 l 111 894 l 111 996 l 468 996 "},"ã":{"x_min":57,"x_max":898.875,"ha":957,"o":"m 576 329 q 464 294 534 312 q 355 216 355 265 q 376 167 355 185 q 438 150 398 150 q 545 183 511 150 q 579 291 579 217 q 578 315 579 307 q 576 329 578 322 m 604 0 l 585 70 q 464 -2 529 21 q 318 -26 399 -26 q 125 35 193 -26 q 57 208 57 96 q 124 370 57 317 q 377 446 191 422 q 441 453 401 449 q 580 525 580 468 q 554 571 580 556 q 474 586 529 586 q 404 568 428 586 q 376 513 380 550 l 90 513 q 191 700 92 637 q 484 764 291 764 q 652 747 575 764 q 772 701 729 730 q 845 621 824 666 q 867 494 867 577 l 867 83 q 875 47 867 63 q 898 21 883 31 l 898 0 l 604 0 m 721 1046 q 665 915 700 956 q 572 873 629 873 q 545 875 557 873 q 520 881 532 877 l 458 898 q 431 904 443 902 q 412 906 420 906 q 375 895 389 906 q 351 856 361 883 l 271 856 q 325 981 289 940 q 416 1022 361 1022 q 442 1019 427 1022 q 477 1011 457 1016 l 542 993 q 559 989 550 990 q 580 987 569 987 q 617 1002 603 987 q 640 1046 632 1017 l 721 1046 "},"æ":{"x_min":57,"x_max":1375,"ha":1418,"o":"m 819 452 l 1096 452 q 1056 556 1092 520 q 954 593 1019 593 q 858 556 893 593 q 819 452 823 519 m 576 329 q 457 292 531 312 q 342 212 342 262 q 365 162 342 180 q 430 144 388 144 q 543 178 508 144 q 579 290 579 213 q 578 314 579 306 q 576 329 578 322 m 682 86 q 513 2 604 31 q 318 -26 421 -26 q 125 35 193 -26 q 57 208 57 96 q 123 370 57 317 q 376 446 190 422 q 440 453 400 449 q 580 525 580 468 q 553 571 580 557 q 464 586 526 586 q 391 569 414 586 q 365 515 369 553 l 90 513 l 90 515 q 189 698 90 633 q 467 764 288 764 q 623 741 560 764 q 726 671 685 719 q 834 740 772 717 q 973 764 895 764 q 1267 644 1160 764 q 1375 313 1375 524 l 1375 305 l 820 304 q 857 197 823 233 q 956 161 891 161 q 1043 174 1014 161 q 1080 219 1072 187 l 1349 219 q 1223 39 1326 105 q 964 -26 1120 -26 q 797 2 869 -26 q 682 86 725 31 "},"É":{"x_min":94,"x_max":912,"ha":968,"o":"m 94 0 l 94 999 l 892 999 l 892 760 l 415 760 l 415 626 l 818 626 l 818 397 l 415 397 l 415 243 l 912 243 l 912 0 l 94 0 m 692 1337 l 471 1086 l 367 1086 l 497 1337 l 692 1337 "},"~":{"x_min":121,"x_max":1038,"ha":1157,"o":"m 1038 367 q 907 299 968 320 q 786 278 846 278 q 710 285 749 278 q 605 316 671 293 q 474 353 521 344 q 380 363 426 363 q 261 337 323 363 q 121 255 199 311 l 121 459 q 267 533 201 510 q 397 556 333 556 q 481 547 437 556 q 586 520 525 539 q 629 505 601 515 q 789 469 732 469 q 907 493 847 469 q 1038 570 968 518 l 1038 367 "},"³":{"x_min":31,"x_max":569,"ha":603,"o":"m 31 597 l 207 596 q 230 532 208 553 q 297 511 252 511 q 357 528 336 511 q 378 579 378 545 q 354 628 378 613 q 274 643 330 643 l 258 643 l 258 745 l 271 745 q 348 759 322 745 q 374 804 374 774 q 355 844 374 830 q 301 858 336 858 q 243 842 263 858 q 221 794 223 826 l 47 794 q 119 937 49 883 q 306 991 190 991 q 484 944 417 991 q 552 820 552 897 q 534 753 552 781 q 481 706 516 725 q 546 658 524 691 q 569 576 569 625 q 495 426 569 480 q 292 373 422 373 q 101 430 172 373 q 31 584 31 487 l 31 597 "},"¡":{"x_min":111.28125,"x_max":409.71875,"ha":521,"o":"m 407 999 l 407 724 l 114 724 l 114 999 l 407 999 m 341 642 l 409 250 l 409 0 l 111 0 l 111 250 l 179 642 l 341 642 "},"[":{"x_min":144,"x_max":583,"ha":599,"o":"m 144 999 l 583 999 l 583 788 l 404 788 l 404 -32 l 583 -32 l 583 -243 l 144 -243 l 144 999 "},"%":{"x_min":32,"x_max":1382,"ha":1415,"o":"m 965 273 q 998 191 965 225 q 1079 158 1031 158 q 1161 192 1127 158 q 1196 273 1196 226 q 1162 355 1196 321 q 1079 389 1128 389 q 998 355 1031 389 q 965 273 965 321 m 779 273 q 865 487 779 400 q 1079 575 952 575 q 1292 486 1203 575 q 1382 273 1382 397 q 1292 60 1382 149 q 1079 -28 1203 -28 q 865 59 952 -28 q 779 273 779 146 m 360 -28 l 915 1002 l 1053 1002 l 499 -28 l 360 -28 m 218 700 q 251 618 218 652 q 334 585 285 585 q 415 618 381 585 q 449 700 449 652 q 415 782 449 748 q 334 816 382 816 q 251 782 285 816 q 218 700 218 748 m 32 700 q 119 914 32 827 q 334 1002 206 1002 q 546 913 458 1002 q 635 700 635 824 q 546 487 635 576 q 334 399 458 399 q 119 486 206 399 q 32 700 32 573 "},"P":{"x_min":94,"x_max":991,"ha":1025,"o":"m 415 550 l 517 550 q 652 572 618 550 q 686 651 686 594 q 653 731 686 709 q 517 754 620 754 l 415 754 l 415 550 m 94 0 l 94 999 l 505 999 q 720 983 641 999 q 854 931 800 967 q 957 815 923 885 q 991 651 991 746 q 892 395 991 484 q 606 306 793 306 l 415 306 l 415 0 l 94 0 "},"∏":{"x_min":94,"x_max":1043,"ha":1145,"o":"m 94 999 l 1043 999 l 1043 -266 l 722 -266 l 722 733 l 415 733 l 415 -266 l 94 -266 l 94 999 "},"_":{"x_min":0,"x_max":694,"ha":694,"o":"m 694 -137 l 694 -328 l 0 -328 l 0 -137 l 694 -137 "},"ñ":{"x_min":79,"x_max":875,"ha":949,"o":"m 79 0 l 79 737 l 345 737 l 345 629 q 460 725 397 693 q 604 757 524 757 q 724 734 671 757 q 813 668 777 712 q 861 570 847 628 q 875 383 875 513 l 875 0 l 582 0 l 582 381 q 559 497 582 465 q 482 529 537 529 q 399 492 426 529 q 372 380 372 455 l 372 0 l 79 0 m 700 1046 q 644 915 679 956 q 551 873 608 873 q 524 875 536 873 q 499 881 511 877 l 437 898 q 410 904 422 902 q 391 906 399 906 q 354 895 368 906 q 330 856 340 883 l 250 856 q 304 981 268 940 q 395 1022 340 1022 q 421 1019 406 1022 q 456 1011 436 1016 l 521 993 q 538 989 529 990 q 559 987 548 987 q 596 1002 582 987 q 619 1046 611 1017 l 700 1046 "},"‚":{"x_min":82,"x_max":346,"ha":428,"o":"m 346 277 l 346 21 q 277 -156 346 -88 q 82 -241 208 -224 l 82 -124 q 170 -79 143 -110 q 197 10 197 -48 l 82 10 l 82 277 l 346 277 "},"Æ":{"x_min":-40,"x_max":1379,"ha":1436,"o":"m 388 342 l 617 342 l 617 768 l 529 768 l 388 342 m -40 0 l 351 999 l 1356 999 l 1356 760 l 911 760 l 911 626 l 1281 626 l 1281 397 l 911 397 l 911 243 l 1379 243 l 1379 0 l 617 0 l 617 132 l 321 132 l 276 0 l -40 0 "},"₣":{"x_min":94,"x_max":1485,"ha":1512,"o":"m 94 0 l 94 999 l 849 999 l 849 747 l 415 747 l 415 592 l 760 592 l 760 351 l 415 351 l 415 0 l 94 0 m 959 0 l 959 737 l 1229 737 l 1229 602 q 1313 719 1258 682 q 1458 757 1367 757 l 1485 757 l 1485 464 q 1453 466 1468 465 q 1425 468 1438 468 q 1294 427 1336 468 q 1253 302 1253 387 l 1253 0 l 959 0 "},"ğ":{"x_min":45,"x_max":862,"ha":940,"o":"m 337 373 q 366 241 337 284 q 455 198 395 198 q 548 240 518 198 q 578 372 578 282 q 546 496 578 452 q 455 541 514 541 q 366 499 395 541 q 337 373 337 457 m 93 -79 l 383 -79 q 408 -117 388 -105 q 469 -129 428 -129 q 557 -100 534 -129 q 580 24 580 -72 l 580 64 q 491 10 542 28 q 374 -7 440 -7 q 134 95 224 -7 q 45 366 45 197 q 130 651 45 545 q 360 757 216 757 q 499 728 440 757 q 602 641 558 700 l 602 737 l 862 737 l 862 56 q 767 -216 862 -135 q 449 -297 673 -297 q 200 -239 293 -297 q 93 -79 107 -182 m 257 1053 l 346 1053 q 380 981 350 1004 q 470 959 410 959 q 561 982 530 959 q 594 1053 591 1005 l 683 1053 q 623 894 674 945 q 470 844 571 844 q 316 895 369 844 q 257 1053 263 947 "},"ª":{"x_min":43,"x_max":673.734375,"ha":718,"o":"m 432 713 q 348 688 401 702 q 267 634 267 668 q 283 599 267 611 q 329 588 299 588 q 409 611 384 588 q 435 687 435 635 q 434 703 435 698 q 432 713 434 708 m 453 483 l 440 532 q 349 481 398 498 q 239 465 300 465 q 94 507 145 465 q 43 628 43 550 q 93 742 43 705 q 283 795 143 778 q 332 800 302 797 q 436 850 436 810 q 417 881 436 871 q 357 892 397 892 q 303 879 321 892 q 282 841 285 866 l 69 841 q 144 972 69 928 q 364 1017 218 1017 q 488 1005 431 1017 q 579 974 546 993 q 634 917 618 948 q 650 828 650 886 l 650 541 q 656 516 650 527 q 673 497 662 505 l 673 483 l 453 483 "},"Œ":{"x_min":60,"x_max":1547,"ha":1619,"o":"m 375 498 q 421 285 375 353 q 567 218 467 218 q 711 285 665 218 q 757 498 757 353 q 711 711 757 643 q 567 779 665 779 q 421 711 467 779 q 375 498 375 643 m 786 80 q 675 2 740 28 q 525 -24 610 -24 q 189 120 319 -24 q 60 498 60 265 q 189 877 60 732 q 525 1023 318 1023 q 670 997 606 1023 q 786 918 734 971 l 786 999 l 1526 999 l 1526 760 l 1050 760 l 1050 626 l 1452 626 l 1452 397 l 1050 397 l 1050 243 l 1547 243 l 1547 0 l 786 0 l 786 80 "},"T":{"x_min":17,"x_max":914,"ha":922,"o":"m 305 0 l 305 736 l 17 736 l 17 999 l 914 999 l 914 736 l 626 736 l 626 0 l 305 0 "},"š":{"x_min":43,"x_max":810,"ha":850,"o":"m 43 232 l 328 232 q 352 162 328 185 q 424 139 376 139 q 495 154 470 139 q 520 200 520 170 q 410 273 520 249 q 395 276 401 275 q 126 371 189 320 q 63 521 63 422 q 155 701 63 639 q 425 764 248 764 q 680 705 590 764 q 785 532 771 647 l 521 532 q 492 585 517 565 q 428 605 466 605 q 369 591 389 605 q 349 553 349 578 q 448 487 349 509 q 488 479 475 482 q 749 381 689 433 q 810 229 810 329 q 711 38 810 102 q 419 -26 612 -26 q 146 38 240 -26 q 43 232 52 102 m 207 1076 l 311 1076 l 425 939 l 538 1076 l 642 1076 l 511 825 l 337 825 l 207 1076 "},"Þ":{"x_min":94,"x_max":991,"ha":1025,"o":"m 415 439 l 517 439 q 651 461 616 439 q 686 542 686 484 q 654 620 686 598 q 517 643 622 643 l 415 643 l 415 439 m 94 0 l 94 999 l 415 999 l 415 888 l 505 888 q 721 872 642 888 q 854 820 801 856 q 957 705 923 774 q 991 542 991 636 q 892 284 991 373 q 606 196 793 196 l 415 196 l 415 0 l 94 0 "},"j":{"x_min":-24,"x_max":394,"ha":476,"o":"m 98 812 l 98 1023 l 394 1023 l 394 812 l 98 812 m 394 737 l 394 -10 q 335 -230 394 -164 q 141 -297 276 -297 l -24 -297 l -24 -79 l 2 -79 q 79 -59 60 -79 q 98 22 98 -39 l 98 737 l 394 737 "},"1":{"x_min":140,"x_max":644,"ha":913,"o":"m 359 0 l 359 567 l 140 567 l 140 769 q 341 818 276 771 q 423 974 405 865 l 644 974 l 644 0 l 359 0 "},"›":{"x_min":57,"x_max":315,"ha":361,"o":"m 57 638 l 315 471 l 315 264 l 57 96 l 57 283 l 185 367 l 57 450 l 57 638 "},"<":{"x_min":179,"x_max":978,"ha":1157,"o":"m 978 635 l 434 413 l 978 191 l 978 -11 l 179 319 l 179 509 l 978 840 l 978 635 "},"t":{"x_min":22,"x_max":558,"ha":596,"o":"m 418 273 q 439 221 418 236 q 516 206 461 206 q 541 206 532 206 q 558 207 549 206 l 558 -5 q 459 -10 503 -8 q 376 -12 414 -12 q 181 34 236 -12 q 126 199 126 81 l 126 568 l 22 568 l 22 737 l 126 737 l 126 965 l 418 965 l 418 737 l 555 737 l 555 568 l 418 568 l 418 273 "},"¬":{"x_min":172,"x_max":984,"ha":1157,"o":"m 984 589 l 984 249 l 800 249 l 800 409 l 172 409 l 172 589 l 984 589 "},"ù":{"x_min":74,"x_max":869,"ha":949,"o":"m 869 737 l 869 0 l 601 0 l 601 108 q 486 11 549 43 q 342 -20 422 -20 q 223 2 275 -20 q 133 68 170 24 q 87 164 101 108 q 74 355 74 221 l 74 737 l 367 737 l 367 356 q 389 240 367 272 q 466 208 411 208 q 548 245 521 208 q 576 357 576 282 l 576 737 l 869 737 m 268 1076 l 462 1076 l 593 825 l 488 825 l 268 1076 "},"ï":{"x_min":26,"x_max":442,"ha":469,"o":"m 86 0 l 86 737 l 382 737 l 382 0 l 86 0 m 272 859 l 272 1042 l 442 1042 l 442 859 l 272 859 m 26 859 l 26 1042 l 196 1042 l 196 859 l 26 859 "},"Ò":{"x_min":52,"x_max":1090,"ha":1141,"o":"m 375 498 q 422 290 375 356 q 571 224 470 224 q 719 290 672 224 q 766 498 766 356 q 719 707 766 641 q 571 774 672 774 q 422 707 470 774 q 375 498 375 641 m 52 498 q 191 883 52 742 q 571 1025 330 1025 q 950 883 811 1025 q 1090 498 1090 742 q 950 113 1090 254 q 571 -28 811 -28 q 191 113 330 -28 q 52 498 52 254 m 364 1337 l 558 1337 l 689 1086 l 584 1086 l 364 1337 "},"&":{"x_min":65,"x_max":1175,"ha":1174,"o":"m 524 649 q 608 697 582 670 q 635 763 635 725 q 607 826 635 802 q 533 850 579 850 q 464 828 488 850 q 440 768 440 807 q 460 707 440 735 q 524 649 480 679 m 588 252 l 444 402 q 368 347 393 378 q 343 279 343 316 q 369 218 343 240 q 442 196 396 196 q 517 210 480 196 q 588 252 554 225 m 833 0 l 750 86 q 588 0 674 28 q 402 -28 503 -28 q 153 51 242 -28 q 65 270 65 130 q 116 446 65 373 q 279 574 168 519 q 209 663 232 616 q 187 764 187 710 q 275 957 187 888 q 524 1026 364 1026 q 775 950 684 1026 q 867 743 867 874 q 826 599 867 660 q 701 491 785 537 l 785 402 q 822 440 804 418 q 857 490 839 461 l 1119 490 q 1045 358 1088 421 q 944 238 1001 296 l 1175 0 l 833 0 "},"":{"x_min":-17,"x_max":898,"ha":913,"o":"m 898 323 q 768 63 872 154 q 499 -28 665 -28 q 224 66 332 -28 q 80 340 116 161 l -17 340 l 34 453 l 69 453 l 69 521 l -17 521 l 34 634 l 81 634 q 223 905 113 808 q 502 1002 334 1002 q 761 919 659 1002 q 893 691 864 837 l 614 691 q 573 757 601 734 q 502 780 544 780 q 419 745 449 780 q 375 634 388 710 l 623 634 l 573 521 l 364 521 q 363 495 363 509 q 363 453 363 482 l 550 453 l 500 340 l 375 340 q 421 234 389 268 q 502 200 452 200 q 576 232 546 200 q 617 323 606 264 l 898 323 "},"˝":{"x_min":191,"x_max":665,"ha":694,"o":"m 387 825 l 492 1076 l 665 1076 l 467 825 l 387 825 m 269 1076 l 437 1076 l 265 825 l 191 825 l 269 1076 "},"I":{"x_min":100,"x_max":427,"ha":528,"o":"m 100 0 l 100 999 l 427 999 l 427 0 l 100 0 "},"G":{"x_min":52,"x_max":1045,"ha":1132,"o":"m 838 0 l 822 86 q 691 0 768 28 q 513 -28 614 -28 q 175 112 298 -28 q 52 498 52 253 q 189 886 52 748 q 575 1025 327 1025 q 890 927 771 1025 q 1033 654 1010 830 l 728 654 q 668 745 709 714 q 567 777 627 777 q 422 702 470 777 q 375 482 375 628 q 423 279 375 346 q 569 212 471 212 q 689 244 640 212 q 750 333 738 277 l 606 333 l 606 547 l 1045 547 l 1045 0 l 838 0 "},"`":{"x_min":140,"x_max":465,"ha":694,"o":"m 140 1076 l 334 1076 l 465 825 l 360 825 l 140 1076 "},"·":{"x_min":82,"x_max":375,"ha":457,"o":"m 82 485 q 124 590 82 548 q 227 633 166 633 q 331 589 288 633 q 375 485 375 546 q 331 382 375 425 q 227 340 288 340 q 124 382 166 340 q 82 485 82 424 "},"¿":{"x_min":43,"x_max":828,"ha":871,"o":"m 574 643 q 576 609 575 621 q 577 589 577 598 q 554 467 577 514 q 483 392 532 420 q 424 362 463 379 q 337 271 337 322 q 363 211 337 234 q 433 189 389 189 q 511 218 484 189 q 538 302 538 247 l 538 307 l 828 307 q 716 58 819 144 q 429 -28 613 -28 q 149 52 255 -28 q 43 262 43 132 q 55 346 43 309 q 94 412 68 383 q 210 493 125 448 q 259 520 242 510 q 308 561 297 542 q 319 617 319 580 q 318 630 319 621 q 317 643 317 638 l 574 643 m 592 999 l 592 724 l 300 724 l 300 999 l 592 999 "},"ý":{"x_min":-8,"x_max":819,"ha":815,"o":"m 90 -290 l 90 -72 l 173 -72 q 235 -57 216 -72 q 254 -9 254 -42 q 250 22 254 4 q 238 62 246 39 l -8 737 l 288 737 l 417 290 l 543 737 l 819 737 l 580 3 q 517 -165 539 -119 q 470 -234 495 -211 q 390 -282 437 -268 q 238 -296 343 -296 q 170 -294 208 -296 q 90 -290 132 -293 m 615 1076 l 394 825 l 290 825 l 420 1076 l 615 1076 "},"º":{"x_min":31,"x_max":656,"ha":686,"o":"m 253 740 q 274 637 253 668 q 343 607 295 607 q 413 638 391 607 q 435 740 435 669 q 413 842 435 811 q 343 874 391 874 q 274 843 295 874 q 253 740 253 812 m 31 740 q 114 943 31 869 q 343 1017 198 1017 q 572 943 488 1017 q 656 740 656 869 q 572 537 656 611 q 343 464 488 464 q 114 537 198 464 q 31 740 31 611 "},"∞":{"x_min":123,"x_max":1034,"ha":1157,"o":"m 660 380 q 725 321 687 341 q 809 302 762 302 q 902 331 866 302 q 938 404 938 360 q 905 478 938 448 q 826 509 872 509 q 742 479 781 509 q 660 380 704 449 m 495 442 q 430 501 467 481 q 346 521 394 521 q 254 491 289 521 q 219 416 219 462 q 251 343 219 373 q 330 314 283 314 q 414 343 376 314 q 495 442 452 373 m 579 536 q 680 665 626 623 q 799 708 735 708 q 965 622 896 708 q 1034 410 1034 537 q 972 197 1034 279 q 814 115 911 115 q 703 150 754 115 q 575 287 651 186 q 476 157 530 199 q 357 115 422 115 q 191 200 259 115 q 123 412 123 285 q 183 626 123 544 q 341 708 244 708 q 450 672 398 708 q 579 536 501 636 "},";":{"x_min":97,"x_max":392,"ha":489,"o":"m 97 439 l 97 737 l 392 737 l 392 439 l 97 439 m 97 -249 l 97 -119 q 200 -78 168 -108 q 233 10 233 -47 l 97 10 l 97 300 l 392 300 l 392 5 q 315 -170 392 -104 q 97 -249 239 -236 "},"6":{"x_min":40,"x_max":880,"ha":913,"o":"m 336 325 q 371 229 336 264 q 466 194 406 194 q 559 229 525 194 q 594 323 594 264 q 560 420 594 385 q 467 456 526 456 q 372 420 407 456 q 336 325 336 384 m 328 572 q 421 625 366 607 q 544 643 476 643 q 788 556 697 643 q 880 323 880 469 q 772 67 880 161 q 479 -26 665 -26 q 150 102 261 -26 q 40 484 40 231 q 155 864 40 728 q 479 1000 271 1000 q 735 928 634 1000 q 864 729 836 857 l 594 720 q 553 778 582 758 q 481 799 525 799 q 371 742 409 799 q 328 572 333 686 "},"n":{"x_min":79,"x_max":875,"ha":949,"o":"m 79 0 l 79 737 l 345 737 l 345 629 q 460 725 397 693 q 604 757 524 757 q 724 734 671 757 q 813 668 777 712 q 861 570 847 628 q 875 383 875 513 l 875 0 l 582 0 l 582 381 q 559 497 582 465 q 482 529 537 529 q 399 492 426 529 q 372 380 372 455 l 372 0 l 79 0 "},"¤":{"x_min":-17,"x_max":898,"ha":913,"o":"m 898 323 q 768 63 872 154 q 499 -28 665 -28 q 224 66 332 -28 q 80 340 116 161 l -17 340 l 34 453 l 69 453 l 69 521 l -17 521 l 34 634 l 81 634 q 223 905 113 808 q 502 1002 334 1002 q 761 919 659 1002 q 893 691 864 837 l 614 691 q 573 757 601 734 q 502 780 544 780 q 419 745 449 780 q 375 634 388 710 l 623 634 l 573 521 l 364 521 q 363 495 363 509 q 363 453 363 482 l 550 453 l 500 340 l 375 340 q 421 234 389 268 q 502 200 452 200 q 576 232 546 200 q 617 323 606 264 l 898 323 "},"∂":{"x_min":25,"x_max":745,"ha":772,"o":"m 522 485 q 546 627 539 571 q 553 729 553 684 q 535 837 553 800 q 482 874 517 874 q 443 859 460 874 q 408 811 426 845 q 346 730 378 757 q 277 704 313 704 q 207 729 235 704 q 180 794 180 755 q 249 894 180 853 q 419 936 319 936 q 658 825 571 936 q 745 520 745 715 q 631 134 745 284 q 337 -16 517 -16 q 108 62 191 -16 q 25 278 25 140 q 110 509 25 416 q 319 602 196 602 q 436 572 384 602 q 522 485 487 542 m 471 375 q 447 492 471 452 q 380 532 424 532 q 278 436 319 532 q 237 196 237 341 q 260 79 237 118 q 328 40 283 40 q 430 135 390 40 q 471 375 471 230 "},"p":{"x_min":81,"x_max":900,"ha":940,"o":"m 607 366 q 577 495 607 453 q 489 538 548 538 q 395 496 424 538 q 366 366 366 455 q 396 241 366 283 q 486 200 426 200 q 576 242 546 200 q 607 366 607 284 m 81 -296 l 81 737 l 340 737 l 340 642 q 441 729 384 702 q 579 757 499 757 q 811 649 722 757 q 900 367 900 542 q 811 81 900 187 q 574 -25 723 -25 q 454 -1 505 -25 q 366 69 403 21 l 366 -296 l 81 -296 "},"‡":{"x_min":27,"x_max":665,"ha":694,"o":"m 234 -153 l 234 76 l 27 76 l 27 263 l 234 263 l 234 583 l 27 583 l 27 765 l 234 765 l 234 999 l 458 999 l 458 765 l 665 765 l 665 583 l 458 583 l 458 263 l 665 263 l 665 76 l 458 76 l 458 -153 l 234 -153 "},"√":{"x_min":57,"x_max":949,"ha":946,"o":"m 949 1178 l 949 1061 l 890 1061 l 491 -28 l 394 -28 l 190 532 l 84 492 l 57 597 l 324 691 l 466 284 l 794 1178 l 949 1178 "},"S":{"x_min":47,"x_max":940,"ha":990,"o":"m 47 311 l 359 311 q 405 232 371 256 q 507 209 439 209 q 595 228 563 209 q 628 281 628 247 q 493 370 628 336 q 451 380 465 376 q 275 432 341 408 q 180 476 210 455 q 93 575 122 517 q 65 706 65 632 q 176 940 65 855 q 484 1025 288 1025 q 788 944 677 1025 q 913 712 898 863 l 608 712 q 569 777 600 755 q 479 799 537 799 q 403 782 428 799 q 378 730 378 765 q 509 648 378 681 q 526 643 520 644 q 584 629 545 638 q 812 549 758 584 q 909 448 878 504 q 940 315 940 392 q 824 60 940 149 q 492 -28 708 -28 q 177 60 294 -28 q 47 311 61 149 "},"/":{"x_min":-5,"x_max":489,"ha":469,"o":"m 119 -129 l -5 -129 l 364 1025 l 489 1025 l 119 -129 "},"y":{"x_min":-8,"x_max":819,"ha":815,"o":"m 90 -290 l 90 -72 l 173 -72 q 235 -57 216 -72 q 254 -9 254 -42 q 250 22 254 4 q 238 62 246 39 l -8 737 l 288 737 l 417 290 l 543 737 l 819 737 l 580 3 q 517 -165 539 -119 q 470 -234 495 -211 q 390 -282 437 -268 q 238 -296 343 -296 q 170 -294 208 -296 q 90 -290 132 -293 "},"≈":{"x_min":121,"x_max":1038,"ha":1157,"o":"m 1038 208 q 905 140 966 162 q 785 119 844 119 q 595 162 726 119 q 380 206 464 206 q 263 180 325 206 q 121 98 202 155 l 121 302 q 265 375 199 352 q 399 398 331 398 q 608 354 479 398 q 790 311 736 311 q 905 334 846 311 q 1038 411 963 357 l 1038 208 m 1038 524 q 905 455 966 476 q 786 434 845 434 q 595 478 726 434 q 380 522 464 522 q 263 497 323 522 q 121 415 203 472 l 121 618 q 266 691 199 668 q 399 714 332 714 q 608 670 479 714 q 790 627 736 627 q 906 650 848 627 q 1038 728 965 674 l 1038 524 "},"g":{"x_min":45,"x_max":862,"ha":940,"o":"m 337 373 q 366 241 337 284 q 455 198 395 198 q 548 240 518 198 q 578 372 578 282 q 546 496 578 452 q 455 541 514 541 q 366 499 395 541 q 337 373 337 457 m 93 -79 l 383 -79 q 408 -117 388 -105 q 469 -129 428 -129 q 557 -100 534 -129 q 580 24 580 -72 l 580 64 q 491 10 542 28 q 374 -7 440 -7 q 134 95 224 -7 q 45 366 45 197 q 130 651 45 545 q 360 757 216 757 q 499 728 440 757 q 602 641 558 700 l 602 737 l 862 737 l 862 56 q 767 -216 862 -135 q 449 -297 673 -297 q 200 -239 293 -297 q 93 -79 107 -182 "},"²":{"x_min":24,"x_max":562,"ha":603,"o":"m 25 389 q 24 396 25 392 q 24 403 24 401 q 66 521 24 465 q 201 636 108 577 q 270 678 226 652 q 375 783 375 738 q 354 838 375 818 q 297 859 333 859 q 229 832 251 859 q 207 753 207 806 l 207 742 l 36 742 l 36 758 q 108 929 36 867 q 307 991 181 991 q 492 939 423 991 q 562 800 562 887 q 534 707 562 744 q 424 623 507 670 q 391 606 414 618 q 272 532 313 563 l 559 532 l 559 389 l 25 389 "},"ë":{"x_min":40,"x_max":884,"ha":925,"o":"m 334 452 l 595 452 q 557 554 590 520 q 461 589 523 589 q 370 552 403 589 q 334 452 336 516 m 579 219 l 860 219 q 726 36 829 98 q 453 -26 622 -26 q 151 79 263 -26 q 40 363 40 184 q 153 656 40 549 q 464 764 267 764 q 772 647 660 764 q 884 322 884 530 l 884 305 l 334 304 q 371 195 336 233 q 469 157 406 157 q 540 173 512 157 q 579 219 568 189 m 506 859 l 506 1042 l 676 1042 l 676 859 l 506 859 m 260 859 l 260 1042 l 430 1042 l 430 859 l 260 859 "},"–":{"x_min":0,"x_max":694,"ha":694,"o":"m 0 272 l 0 473 l 694 473 l 694 272 l 0 272 "},"ƒ":{"x_min":22,"x_max":811,"ha":913,"o":"m 22 -219 l 57 -44 q 106 -53 87 -50 q 137 -56 125 -56 q 199 -33 177 -56 q 230 40 221 -10 l 299 485 l 159 485 l 159 640 l 325 640 q 425 931 354 845 q 633 1018 496 1018 q 723 1011 679 1018 q 811 992 768 1005 l 779 816 l 772 817 q 698 829 719 829 q 636 803 657 829 q 604 703 616 778 l 592 640 l 748 640 l 748 485 l 568 485 l 516 155 q 408 -161 479 -78 q 186 -245 337 -245 q 104 -238 145 -245 q 22 -219 64 -232 "},"J":{"x_min":26,"x_max":800,"ha":890,"o":"m 28 430 l 312 430 l 312 337 q 331 250 312 275 q 394 225 350 225 q 459 252 440 225 q 479 359 479 280 l 479 999 l 800 999 l 800 326 q 698 62 800 153 q 405 -28 597 -28 q 120 68 214 -28 q 26 359 26 164 q 28 426 26 381 l 28 430 "},"Ã":{"x_min":-4,"x_max":1023,"ha":1021,"o":"m 408 342 l 609 342 l 509 687 l 408 342 m -4 0 l 347 999 l 671 999 l 1023 0 l 705 0 l 667 132 l 349 132 l 311 0 l -4 0 m 736 1307 q 680 1176 715 1217 q 587 1134 644 1134 q 560 1136 572 1134 q 535 1142 547 1138 l 473 1159 q 446 1165 458 1163 q 427 1167 435 1167 q 390 1156 404 1167 q 366 1117 376 1144 l 286 1117 q 340 1242 304 1201 q 431 1283 376 1283 q 457 1280 442 1283 q 492 1272 472 1277 l 557 1254 q 574 1250 565 1251 q 595 1248 584 1248 q 632 1263 618 1248 q 655 1307 647 1278 l 736 1307 "},"©":{"x_min":69,"x_max":1088,"ha":1157,"o":"m 668 597 q 642 664 666 639 q 579 689 618 689 q 502 640 530 689 q 474 504 474 592 q 501 371 474 415 q 585 327 529 327 q 647 351 625 327 q 671 424 668 376 l 839 424 q 765 263 834 323 q 581 204 695 204 q 373 282 449 204 q 298 499 298 361 q 373 718 298 634 q 568 802 448 802 q 757 747 688 802 q 832 597 826 693 l 668 597 m 984 502 q 953 657 984 583 q 866 788 922 731 q 734 877 807 847 q 578 908 661 908 q 422 878 495 908 q 293 791 349 849 q 204 657 235 732 q 173 502 173 583 q 203 348 173 421 q 292 217 234 274 q 423 127 350 158 q 578 97 497 97 q 733 128 659 97 q 867 218 807 159 q 954 346 925 274 q 984 502 984 419 m 577 1012 q 775 974 682 1012 q 940 863 868 936 q 1049 698 1011 792 q 1088 502 1088 605 q 1050 306 1088 397 q 940 145 1012 215 q 771 32 865 72 q 577 -7 677 -7 q 384 31 476 -7 q 219 144 293 70 q 107 308 146 216 q 69 502 69 401 q 107 698 69 604 q 220 866 146 791 q 382 974 290 937 q 577 1012 473 1012 "},"˘":{"x_min":134,"x_max":560,"ha":694,"o":"m 134 1053 l 223 1053 q 257 981 227 1004 q 347 959 287 959 q 438 982 407 959 q 471 1053 468 1005 l 560 1053 q 500 894 551 945 q 347 844 448 844 q 193 895 246 844 q 134 1053 140 947 "},"≥":{"x_min":172,"x_max":986,"ha":1157,"o":"m 986 160 l 986 -24 l 172 -24 l 172 160 l 986 160 m 984 616 l 984 455 l 173 204 l 173 394 l 651 536 l 173 677 l 173 869 l 984 616 "},"D":{"x_min":94,"x_max":1036,"ha":1089,"o":"m 415 253 l 501 253 q 667 306 621 253 q 714 498 714 360 q 666 689 714 633 q 505 746 619 746 l 415 746 l 415 253 m 94 0 l 94 999 l 482 999 q 702 985 629 999 q 827 942 774 972 q 983 770 931 880 q 1036 498 1036 659 q 971 213 1036 328 q 780 41 906 97 q 658 9 731 18 q 422 0 584 0 l 94 0 "},"ÿ":{"x_min":-8,"x_max":819,"ha":815,"o":"m 90 -290 l 90 -72 l 173 -72 q 235 -57 216 -72 q 254 -9 254 -42 q 250 22 254 4 q 238 62 246 39 l -8 737 l 288 737 l 417 290 l 543 737 l 819 737 l 580 3 q 517 -165 539 -119 q 470 -234 495 -211 q 390 -282 437 -268 q 238 -296 343 -296 q 170 -294 208 -296 q 90 -290 132 -293 m 446 859 l 446 1042 l 616 1042 l 616 859 l 446 859 m 200 859 l 200 1042 l 370 1042 l 370 859 l 200 859 "},"ł":{"x_min":-46.109375,"x_max":533.453125,"ha":482,"o":"m 93 0 l 93 354 l 33 315 l -46 437 l 93 527 l 93 999 l 389 999 l 389 680 l 456 723 l 533 602 l 389 508 l 389 0 l 93 0 "},"Ł":{"x_min":-66.453125,"x_max":857,"ha":895,"o":"m 102 0 l 102 359 l 21 305 l -66 455 l 102 566 l 102 999 l 423 999 l 423 743 l 597 857 l 687 707 l 423 536 l 423 265 l 857 265 l 857 0 l 102 0 "},"$":{"x_min":36,"x_max":877,"ha":913,"o":"m 418 630 l 418 814 l 412 814 q 325 792 354 814 q 296 724 296 770 q 323 668 296 690 q 418 630 350 647 m 402 -131 l 402 -15 q 132 77 227 -8 q 36 316 37 164 l 286 316 q 316 205 290 239 q 397 170 342 172 l 397 393 q 131 504 213 434 q 50 692 50 575 q 147 902 50 823 q 411 985 245 982 l 411 1073 l 520 1073 l 520 987 q 767 905 678 982 q 862 688 856 827 l 625 688 q 594 779 621 748 q 517 812 567 810 l 517 606 q 795 487 713 560 q 877 290 877 414 q 784 70 877 146 q 505 -17 691 -6 l 505 -131 l 402 -131 m 498 170 q 598 193 564 170 q 632 261 632 216 q 603 324 632 300 q 498 368 574 347 l 498 170 "},"w":{"x_min":16,"x_max":1279,"ha":1295,"o":"m 258 0 l 16 737 l 306 737 l 415 287 l 529 737 l 776 737 l 890 287 l 1000 737 l 1279 737 l 1046 0 l 759 0 l 652 426 l 545 0 l 258 0 "},"\\":{"x_min":-5,"x_max":489,"ha":469,"o":"m 364 -129 l -5 1025 l 119 1025 l 489 -129 l 364 -129 "},"∫":{"x_min":35,"x_max":871,"ha":903,"o":"m 257 -166 q 293 -137 276 -166 q 322 -60 311 -109 q 339 200 335 2 q 346 399 342 326 q 443 903 361 749 q 693 1057 525 1057 q 822 1017 773 1057 q 871 915 871 977 q 839 838 871 868 q 761 809 808 809 q 692 836 715 809 q 669 918 669 864 q 670 925 669 919 q 671 935 671 931 q 665 961 671 953 q 647 970 659 970 q 562 521 577 970 q 560 461 560 482 q 535 133 552 235 q 485 -47 518 31 q 372 -201 441 -149 q 211 -253 303 -253 q 83 -214 131 -253 q 35 -111 35 -175 q 65 -33 35 -62 q 147 -5 95 -5 q 212 -30 189 -5 q 236 -101 236 -56 q 235 -122 236 -110 q 234 -138 234 -134 q 240 -158 234 -151 q 257 -166 246 -166 "},"Ì":{"x_min":57,"x_max":427,"ha":528,"o":"m 100 0 l 100 999 l 427 999 l 427 0 l 100 0 m 57 1337 l 251 1337 l 382 1086 l 277 1086 l 57 1337 "},"Ç":{"x_min":52,"x_max":1046,"ha":1086,"o":"m 742 386 l 1046 386 q 907 80 1032 189 q 567 -28 781 -28 q 189 112 327 -28 q 52 498 52 253 q 188 883 52 742 q 560 1025 324 1025 q 901 920 777 1025 q 1041 620 1026 815 l 734 620 q 684 735 727 696 q 564 775 641 775 q 422 706 469 775 q 375 498 375 637 q 425 291 375 361 q 572 222 475 222 q 690 264 647 222 q 742 386 734 307 m 400 -298 l 400 -204 q 501 -227 454 -219 q 583 -235 548 -235 q 627 -223 612 -235 q 642 -185 642 -211 q 622 -153 642 -164 q 561 -143 603 -143 q 538 -143 547 -143 q 524 -144 530 -143 l 524 0 l 601 0 l 601 -57 l 613 -57 q 729 -90 689 -57 q 770 -187 770 -124 q 725 -292 770 -255 q 597 -329 680 -329 q 506 -321 556 -329 q 400 -298 457 -314 "},"C":{"x_min":52,"x_max":1046,"ha":1086,"o":"m 742 386 l 1046 386 q 907 80 1032 189 q 567 -28 781 -28 q 189 112 327 -28 q 52 498 52 253 q 188 883 52 742 q 560 1025 324 1025 q 901 920 777 1025 q 1041 620 1026 815 l 734 620 q 684 735 727 696 q 564 775 641 775 q 422 706 469 775 q 375 498 375 637 q 425 291 375 361 q 572 222 475 222 q 690 264 647 222 q 742 386 734 307 "},"!":{"x_min":111.28125,"x_max":409.71875,"ha":521,"o":"m 179 356 l 111 748 l 111 999 l 409 999 l 409 748 l 341 356 l 179 356 m 114 0 l 114 275 l 407 275 l 407 0 l 114 0 "},"ç":{"x_min":40,"x_max":864,"ha":905,"o":"m 571 288 l 864 288 q 747 58 854 142 q 463 -26 640 -26 q 153 80 267 -26 q 40 370 40 186 q 152 658 40 553 q 461 764 265 764 q 747 680 638 764 q 861 457 855 597 l 568 457 q 536 534 563 509 q 459 560 510 560 q 365 514 395 560 q 336 370 336 468 q 364 224 336 270 q 456 178 393 178 q 536 205 507 178 q 571 288 565 233 m 290 -298 l 290 -204 q 391 -227 344 -219 q 473 -235 438 -235 q 517 -223 502 -235 q 532 -185 532 -211 q 512 -153 532 -164 q 451 -143 493 -143 q 428 -143 437 -143 q 414 -144 420 -143 l 414 0 l 491 0 l 491 -57 l 503 -57 q 619 -90 579 -57 q 660 -187 660 -124 q 615 -292 660 -255 q 487 -329 570 -329 q 396 -321 446 -329 q 290 -298 347 -314 "},"È":{"x_min":94,"x_max":912,"ha":968,"o":"m 94 0 l 94 999 l 892 999 l 892 760 l 415 760 l 415 626 l 818 626 l 818 397 l 415 397 l 415 243 l 912 243 l 912 0 l 94 0 m 278 1337 l 472 1337 l 603 1086 l 498 1086 l 278 1337 "},"X":{"x_min":-10,"x_max":1024,"ha":1015,"o":"m -10 0 l 333 519 l 21 999 l 381 999 l 514 746 l 660 999 l 1013 999 l 689 519 l 1024 0 l 662 0 l 510 270 l 359 0 l -10 0 "},"ô":{"x_min":40,"x_max":873,"ha":914,"o":"m 336 370 q 364 222 336 267 q 456 178 392 178 q 550 223 521 178 q 579 370 579 268 q 550 515 579 471 q 456 560 521 560 q 364 515 392 560 q 336 370 336 471 m 40 370 q 151 658 40 553 q 456 764 262 764 q 762 658 651 764 q 873 370 873 553 q 761 79 873 185 q 456 -26 650 -26 q 151 79 262 -26 q 40 370 40 185 m 239 825 l 369 1076 l 543 1076 l 674 825 l 570 825 l 457 959 l 343 825 l 239 825 "},"đ":{"x_min":43,"x_max":948.125,"ha":947,"o":"m 576 651 l 576 797 l 355 797 l 355 931 l 576 931 l 576 999 l 862 999 l 862 931 l 948 931 l 948 797 l 862 797 l 862 0 l 602 0 l 602 90 q 494 2 553 31 q 360 -26 434 -26 q 131 80 219 -26 q 43 359 43 187 q 132 639 43 531 q 363 747 221 747 q 476 724 427 747 q 576 651 525 702 m 457 191 q 546 235 514 191 q 578 360 578 280 q 548 489 578 447 q 457 531 518 531 q 367 489 396 531 q 338 360 338 447 q 369 235 338 280 q 457 191 401 191 "},"}":{"x_min":82,"x_max":598,"ha":694,"o":"m 435 786 l 435 612 q 466 491 435 526 q 574 456 498 456 q 585 457 577 456 q 598 458 593 458 l 598 265 q 585 265 593 265 q 574 266 577 266 q 466 231 498 266 q 435 109 435 195 l 435 -64 q 418 -191 435 -153 q 359 -250 401 -229 q 281 -273 329 -266 q 145 -280 234 -280 l 82 -280 l 82 -87 q 97 -87 88 -87 q 111 -88 107 -88 q 190 -68 170 -88 q 211 18 211 -47 l 211 181 q 242 308 211 271 q 358 361 274 345 q 242 413 274 376 q 211 541 211 450 l 211 703 q 190 790 211 769 q 111 810 170 810 q 97 809 107 810 q 82 809 88 809 l 82 1002 l 136 1002 q 278 994 229 1002 q 359 971 327 987 q 418 912 401 950 q 435 786 435 874 "},"â":{"x_min":57,"x_max":898.875,"ha":957,"o":"m 576 329 q 464 294 534 312 q 355 216 355 265 q 376 167 355 185 q 438 150 398 150 q 545 183 511 150 q 579 291 579 217 q 578 315 579 307 q 576 329 578 322 m 604 0 l 585 70 q 464 -2 529 21 q 318 -26 399 -26 q 125 35 193 -26 q 57 208 57 96 q 124 370 57 317 q 377 446 191 422 q 441 453 401 449 q 580 525 580 468 q 554 571 580 556 q 474 586 529 586 q 404 568 428 586 q 376 513 380 550 l 90 513 q 191 700 92 637 q 484 764 291 764 q 652 747 575 764 q 772 701 729 730 q 845 621 824 666 q 867 494 867 577 l 867 83 q 875 47 867 63 q 898 21 883 31 l 898 0 l 604 0 m 278 825 l 408 1076 l 582 1076 l 713 825 l 609 825 l 496 959 l 382 825 l 278 825 "},"ø":{"x_min":39,"x_max":875,"ha":914,"o":"m 96 -27 l 45 26 l 127 107 q 60 225 82 162 q 39 365 39 288 q 151 657 39 551 q 457 764 263 764 q 606 744 538 764 q 726 686 675 724 l 799 765 l 860 711 l 784 637 q 853 521 831 584 q 875 377 875 458 q 764 81 875 188 q 457 -26 653 -26 q 302 -5 372 -26 q 182 56 233 15 l 96 -27 m 324 298 l 558 524 q 517 559 542 547 q 457 571 492 571 q 354 523 388 571 q 320 382 320 476 q 321 339 320 368 q 324 298 323 309 m 587 448 l 350 216 q 394 177 368 189 q 460 166 420 166 q 562 216 529 166 q 595 372 595 266 q 592 409 595 390 q 587 448 590 429 "},"Ä":{"x_min":-4,"x_max":1023,"ha":1021,"o":"m 408 342 l 609 342 l 509 687 l 408 342 m -4 0 l 347 999 l 671 999 l 1023 0 l 705 0 l 667 132 l 349 132 l 311 0 l -4 0 m 549 1120 l 549 1303 l 719 1303 l 719 1120 l 549 1120 m 303 1120 l 303 1303 l 473 1303 l 473 1120 l 303 1120 "},"‰":{"x_min":32,"x_max":2053,"ha":2085,"o":"m 1636 273 q 1668 193 1636 225 q 1751 161 1701 161 q 1833 194 1799 161 q 1867 273 1867 226 q 1833 355 1867 321 q 1751 389 1799 389 q 1669 355 1703 389 q 1636 273 1636 321 m 1450 273 q 1537 487 1450 400 q 1751 575 1624 575 q 1964 486 1875 575 q 2053 273 2053 397 q 1964 60 2053 149 q 1751 -28 1875 -28 q 1537 59 1624 -28 q 1450 273 1450 146 m 965 273 q 998 191 965 225 q 1079 158 1031 158 q 1161 192 1127 158 q 1196 273 1196 226 q 1162 355 1196 321 q 1079 389 1128 389 q 998 355 1031 389 q 965 273 965 321 m 779 273 q 865 487 779 400 q 1079 575 952 575 q 1292 486 1203 575 q 1382 273 1382 397 q 1292 60 1382 149 q 1079 -28 1203 -28 q 865 59 952 -28 q 779 273 779 146 m 360 -28 l 915 1002 l 1053 1002 l 499 -28 l 360 -28 m 218 699 q 251 618 218 651 q 334 585 285 585 q 415 618 382 585 q 449 699 449 651 q 415 782 449 748 q 334 816 382 816 q 251 782 285 816 q 218 699 218 748 m 32 699 q 119 914 32 827 q 334 1002 206 1002 q 546 913 458 1002 q 635 699 635 824 q 546 487 635 575 q 334 399 458 399 q 119 485 206 399 q 32 699 32 572 "},"N":{"x_min":94,"x_max":1035,"ha":1131,"o":"m 94 0 l 94 999 l 399 999 l 678 534 q 706 478 691 514 q 737 392 720 442 q 731 450 733 418 q 729 527 729 482 l 729 999 l 1035 999 l 1035 0 l 729 0 l 449 461 q 421 518 436 481 q 390 604 405 556 q 396 549 394 577 q 399 467 399 520 l 399 0 l 94 0 "},"—":{"x_min":0,"x_max":1389,"ha":1389,"o":"m 0 272 l 0 473 l 1389 473 l 1389 272 l 0 272 "},"2":{"x_min":36,"x_max":852,"ha":913,"o":"m 37 0 q 36 11 37 4 q 36 23 36 19 q 99 220 36 127 q 305 412 163 312 q 409 481 343 439 q 569 658 569 583 q 537 749 569 716 q 450 782 505 782 q 348 738 382 782 q 314 605 314 694 l 314 588 l 56 588 q 55 603 56 594 q 54 616 54 612 q 164 899 54 797 q 465 1002 273 1002 q 746 915 641 1002 q 852 686 852 829 q 811 530 852 593 q 644 392 770 468 q 596 363 629 382 q 412 239 476 292 l 849 239 l 849 0 l 37 0 "},"ü":{"x_min":74,"x_max":869,"ha":949,"o":"m 869 737 l 869 0 l 601 0 l 601 108 q 486 11 549 43 q 342 -20 422 -20 q 223 2 275 -20 q 133 68 170 24 q 87 164 101 108 q 74 355 74 221 l 74 737 l 367 737 l 367 356 q 389 240 367 272 q 466 208 411 208 q 548 245 521 208 q 576 357 576 282 l 576 737 l 869 737 m 513 859 l 513 1042 l 683 1042 l 683 859 l 513 859 m 267 859 l 267 1042 l 437 1042 l 437 859 l 267 859 "},"":{"x_min":16,"x_max":902,"ha":978,"o":"m 108 0 l 108 571 l 16 571 l 16 737 l 108 737 l 108 783 q 169 964 108 906 q 360 1023 230 1023 l 524 1023 l 524 838 q 508 839 518 838 q 493 840 498 840 q 419 822 440 840 q 398 759 398 804 q 399 748 398 755 q 400 737 400 741 l 524 737 l 524 571 l 400 571 l 400 0 l 108 0 m 606 0 l 606 999 l 902 999 l 902 0 l 606 0 "},"Ó":{"x_min":52,"x_max":1090,"ha":1141,"o":"m 375 498 q 422 290 375 356 q 571 224 470 224 q 719 290 672 224 q 766 498 766 356 q 719 707 766 641 q 571 774 672 774 q 422 707 470 774 q 375 498 375 641 m 52 498 q 191 883 52 742 q 571 1025 330 1025 q 950 883 811 1025 q 1090 498 1090 742 q 950 113 1090 254 q 571 -28 811 -28 q 191 113 330 -28 q 52 498 52 254 m 778 1337 l 557 1086 l 453 1086 l 583 1337 l 778 1337 "},"˜":{"x_min":122,"x_max":572,"ha":694,"o":"m 572 1046 q 516 915 551 956 q 423 873 480 873 q 396 875 408 873 q 371 881 383 877 l 309 898 q 282 904 294 902 q 263 906 271 906 q 226 895 240 906 q 202 856 212 883 l 122 856 q 176 981 140 940 q 267 1022 212 1022 q 293 1019 278 1022 q 328 1011 308 1016 l 393 993 q 410 989 401 990 q 431 987 420 987 q 468 1002 454 987 q 491 1046 483 1017 l 572 1046 "},"ˇ":{"x_min":129,"x_max":564,"ha":694,"o":"m 129 1076 l 233 1076 l 347 939 l 460 1076 l 564 1076 l 433 825 l 259 825 l 129 1076 "},"Ÿ":{"x_min":-12,"x_max":1035,"ha":1022,"o":"m 355 0 l 355 369 l -12 999 l 342 999 l 515 658 l 688 999 l 1035 999 l 676 369 l 676 0 l 355 0 m 549 1120 l 549 1303 l 719 1303 l 719 1120 l 549 1120 m 303 1120 l 303 1303 l 473 1303 l 473 1120 l 303 1120 "},"€":{"x_min":-17,"x_max":898,"ha":913,"o":"m 898 323 q 768 63 872 154 q 499 -28 665 -28 q 224 66 332 -28 q 80 340 116 161 l -17 340 l 34 453 l 69 453 l 69 521 l -17 521 l 34 634 l 81 634 q 223 905 113 808 q 502 1002 334 1002 q 761 919 659 1002 q 893 691 864 837 l 614 691 q 573 757 601 734 q 502 780 544 780 q 419 745 449 780 q 375 634 388 710 l 623 634 l 573 521 l 364 521 q 363 495 363 509 q 363 453 363 482 l 550 453 l 500 340 l 375 340 q 421 234 389 268 q 502 200 452 200 q 576 232 546 200 q 617 323 606 264 l 898 323 "},"ß":{"x_min":82,"x_max":896,"ha":936,"o":"m 82 0 l 82 685 q 176 938 82 854 q 462 1022 271 1022 q 738 950 638 1022 q 839 752 839 878 q 808 642 839 688 q 714 563 777 596 q 851 470 807 533 q 896 307 896 407 q 808 66 896 157 q 575 -24 720 -24 q 521 -20 552 -24 q 446 -8 489 -16 l 447 175 q 471 172 459 173 q 494 171 483 171 q 574 203 549 171 q 600 307 600 235 q 569 428 600 391 q 470 465 539 465 l 450 465 l 450 624 l 465 624 q 536 646 515 624 q 558 725 558 669 q 534 804 558 778 q 462 831 511 831 q 391 800 411 831 q 371 685 371 769 l 371 0 l 82 0 "},"s":{"x_min":43,"x_max":810,"ha":850,"o":"m 43 232 l 328 232 q 352 162 328 185 q 424 139 376 139 q 495 154 470 139 q 520 200 520 170 q 410 273 520 249 q 395 276 401 275 q 126 371 189 320 q 63 521 63 422 q 155 701 63 639 q 425 764 248 764 q 680 705 590 764 q 785 532 771 647 l 521 532 q 492 585 517 565 q 428 605 466 605 q 369 591 389 605 q 349 553 349 578 q 448 487 349 509 q 488 479 475 482 q 749 381 689 433 q 810 229 810 329 q 711 38 810 102 q 419 -26 612 -26 q 146 38 240 -26 q 43 232 52 102 "},"?":{"x_min":43,"x_max":828,"ha":871,"o":"m 297 356 q 296 376 296 365 q 296 406 296 386 q 318 530 296 483 q 388 606 340 577 q 446 634 408 617 q 534 725 534 674 q 508 786 534 763 q 438 810 482 810 q 361 780 388 810 q 335 695 335 750 l 335 691 l 43 691 q 155 938 51 852 q 442 1025 258 1025 q 722 945 617 1025 q 828 734 828 865 q 815 651 828 688 q 776 585 802 614 q 663 506 745 550 q 612 479 629 489 q 565 439 577 459 q 554 381 554 419 q 554 369 554 377 q 555 355 555 360 l 297 356 m 279 0 l 279 275 l 571 275 l 571 0 l 279 0 "},"c":{"x_min":40,"x_max":864,"ha":905,"o":"m 571 288 l 864 288 q 747 58 854 142 q 463 -26 640 -26 q 153 80 267 -26 q 40 370 40 186 q 152 658 40 553 q 461 764 265 764 q 747 680 638 764 q 861 457 855 597 l 568 457 q 536 534 563 509 q 459 560 510 560 q 365 514 395 560 q 336 370 336 468 q 364 224 336 270 q 456 178 393 178 q 536 205 507 178 q 571 288 565 233 "},"¶":{"x_min":7,"x_max":689,"ha":694,"o":"m 689 907 l 620 907 l 620 0 l 482 0 l 482 907 l 387 907 l 387 0 l 249 0 l 249 532 q 73 601 139 537 q 7 766 7 666 q 78 937 7 872 q 269 1003 150 1003 l 689 1003 l 689 907 "},"•":{"x_min":208,"x_max":609,"ha":819,"o":"m 208 516 q 266 657 208 599 q 409 716 325 716 q 550 657 491 716 q 609 516 609 598 q 549 374 609 433 q 407 315 490 315 q 266 373 324 315 q 208 516 208 432 "},"(":{"x_min":134,"x_max":527,"ha":572,"o":"m 527 999 q 431 677 462 830 q 401 378 401 524 q 432 76 401 230 q 527 -244 463 -77 l 284 -244 q 171 82 208 -73 q 134 378 134 237 q 170 662 134 511 q 284 999 206 813 l 527 999 "},"◊":{"x_min":4,"x_max":682,"ha":686,"o":"m 343 955 l 81 398 l 343 -158 l 604 398 l 343 955 m 343 1121 l 682 398 l 343 -324 l 4 398 l 343 1121 "},"­":{"x_min":68,"x_max":418,"ha":486,"o":"m 68 243 l 68 504 l 418 504 l 418 243 l 68 243 "},":":{"x_min":97,"x_max":392,"ha":489,"o":"m 97 439 l 97 737 l 392 737 l 392 439 l 97 439 m 97 0 l 97 300 l 392 300 l 392 0 l 97 0 "},"Û":{"x_min":92,"x_max":1039,"ha":1132,"o":"m 92 999 l 413 999 l 413 383 q 448 261 413 297 q 567 225 484 225 q 683 260 648 225 q 718 383 718 296 l 718 999 l 1039 999 l 1039 357 q 918 71 1039 170 q 567 -28 797 -28 q 214 71 336 -28 q 92 357 92 170 l 92 999 m 349 1086 l 479 1337 l 653 1337 l 784 1086 l 680 1086 l 567 1220 l 453 1086 l 349 1086 "},"V":{"x_min":12,"x_max":1005,"ha":1018,"o":"m 12 999 l 340 999 l 508 354 l 689 999 l 1005 999 l 668 0 l 349 0 l 12 999 "}," ":{"x_min":0,"x_max":0,"ha":913},"@":{"x_min":47,"x_max":1341,"ha":1389,"o":"m 841 617 l 874 673 l 1038 673 l 932 248 q 930 235 931 240 q 929 227 929 231 q 938 203 929 211 q 961 194 946 194 q 1118 290 1048 194 q 1188 515 1188 387 q 1069 773 1188 675 q 756 872 951 872 q 575 847 659 872 q 423 776 491 823 q 261 593 318 703 q 205 356 205 484 q 340 38 205 156 q 703 -80 475 -80 q 911 -48 811 -80 q 1100 47 1011 -16 l 1178 -61 q 946 -184 1067 -144 q 688 -224 825 -224 q 447 -187 560 -224 q 248 -80 334 -150 q 97 108 147 0 q 47 352 47 216 q 84 577 47 471 q 195 770 122 684 q 440 954 296 890 q 753 1019 584 1019 q 1178 879 1015 1019 q 1341 517 1341 739 q 1294 304 1341 401 q 1161 140 1248 207 q 1057 83 1114 102 q 939 63 1001 63 q 826 89 865 63 q 781 167 787 115 q 694 89 741 113 q 585 65 648 65 q 410 124 469 65 q 352 302 352 184 q 449 581 352 469 q 691 693 546 693 q 779 673 741 693 q 841 617 818 654 m 763 334 l 795 466 q 766 537 790 512 q 704 563 742 563 q 591 484 640 563 q 543 298 543 405 q 563 222 543 249 q 622 196 584 196 q 709 233 671 196 q 763 334 748 271 "},"¾":{"x_min":29,"x_max":1358,"ha":1382,"o":"m 965 237 l 1114 237 l 1114 397 l 965 237 m 1110 0 l 1110 114 l 829 114 l 829 245 l 1114 546 l 1285 546 l 1285 237 l 1358 237 l 1358 114 l 1285 114 l 1285 0 l 1110 0 m 343 -27 l 899 1002 l 1037 1002 l 480 -27 l 343 -27 m 29 622 l 197 621 q 219 561 198 581 q 283 542 240 542 q 341 558 321 542 q 361 605 361 574 q 337 650 361 636 q 261 665 314 665 l 245 665 l 245 759 l 258 759 q 331 773 307 759 q 355 815 355 787 q 337 853 355 840 q 287 867 320 867 q 230 851 249 867 q 210 806 211 836 l 45 806 q 113 939 45 888 q 291 990 181 990 q 462 946 398 990 q 526 831 526 903 q 508 767 526 794 q 458 724 491 740 q 521 679 500 709 q 542 602 542 649 q 472 464 542 514 q 278 414 402 414 q 96 467 163 414 q 29 610 29 520 l 29 622 "},"i":{"x_min":86,"x_max":382,"ha":469,"o":"m 86 812 l 86 1023 l 382 1023 l 382 812 l 86 812 m 86 0 l 86 737 l 382 737 l 382 0 l 86 0 "},"≤":{"x_min":172,"x_max":986,"ha":1157,"o":"m 986 160 l 986 -24 l 172 -24 l 172 160 l 986 160 m 984 677 l 507 536 l 984 394 l 984 204 l 172 455 l 172 616 l 984 869 l 984 677 "},"m":{"x_min":79,"x_max":1349,"ha":1422,"o":"m 79 0 l 79 737 l 345 737 l 345 629 q 455 725 394 694 q 595 757 516 757 q 720 726 668 757 q 814 629 773 695 q 931 727 868 695 q 1075 758 995 758 q 1277 691 1205 758 q 1349 502 1349 623 l 1349 0 l 1060 0 l 1060 394 q 1036 494 1060 463 q 961 526 1013 526 q 883 493 908 526 q 858 391 858 460 l 858 0 l 570 0 l 570 384 q 546 493 570 460 q 467 526 522 526 q 393 492 418 526 q 368 395 368 459 l 368 0 l 79 0 "},"ž":{"x_min":18,"x_max":717,"ha":743,"o":"m 18 0 l 18 198 l 353 522 l 47 522 l 47 737 l 700 737 l 700 540 l 372 215 l 717 215 l 717 0 l 18 0 m 154 1076 l 258 1076 l 372 939 l 485 1076 l 589 1076 l 458 825 l 284 825 l 154 1076 "},"á":{"x_min":57,"x_max":898.875,"ha":957,"o":"m 576 329 q 464 294 534 312 q 355 216 355 265 q 376 167 355 185 q 438 150 398 150 q 545 183 511 150 q 579 291 579 217 q 578 315 579 307 q 576 329 578 322 m 604 0 l 585 70 q 464 -2 529 21 q 318 -26 399 -26 q 125 35 193 -26 q 57 208 57 96 q 124 370 57 317 q 377 446 191 422 q 441 453 401 449 q 580 525 580 468 q 554 571 580 556 q 474 586 529 586 q 404 568 428 586 q 376 513 380 550 l 90 513 q 191 700 92 637 q 484 764 291 764 q 652 747 575 764 q 772 701 729 730 q 845 621 824 666 q 867 494 867 577 l 867 83 q 875 47 867 63 q 898 21 883 31 l 898 0 l 604 0 m 703 1076 l 482 825 l 378 825 l 508 1076 l 703 1076 "},"×":{"x_min":172,"x_max":1014,"ha":1157,"o":"m 592 546 l 881 835 l 1014 702 l 724 413 l 1014 124 l 881 -7 l 592 282 l 304 -7 l 172 124 l 461 413 l 172 702 l 304 835 l 592 546 "},"İ":{"x_min":100,"x_max":427,"ha":528,"o":"m 100 0 l 100 999 l 427 999 l 427 0 l 100 0 m 177 1117 l 177 1308 l 353 1308 l 353 1117 l 177 1117 "},"K":{"x_min":94,"x_max":1118,"ha":1083,"o":"m 94 0 l 94 999 l 412 999 l 412 668 l 699 999 l 1071 999 l 715 630 l 1118 0 l 735 0 l 491 400 l 412 318 l 412 0 l 94 0 "},"7":{"x_min":62,"x_max":841,"ha":913,"o":"m 215 0 q 308 387 230 210 q 537 733 386 565 l 62 733 l 62 974 l 841 974 l 841 760 q 628 432 702 619 q 544 0 555 244 l 215 0 "},"¨":{"x_min":139,"x_max":555,"ha":694,"o":"m 385 859 l 385 1042 l 555 1042 l 555 859 l 385 859 m 139 859 l 139 1042 l 309 1042 l 309 859 l 139 859 "},"Y":{"x_min":-12,"x_max":1035,"ha":1022,"o":"m 355 0 l 355 369 l -12 999 l 342 999 l 515 658 l 688 999 l 1035 999 l 676 369 l 676 0 l 355 0 "},"E":{"x_min":94,"x_max":912,"ha":968,"o":"m 94 0 l 94 999 l 892 999 l 892 760 l 415 760 l 415 626 l 818 626 l 818 397 l 415 397 l 415 243 l 912 243 l 912 0 l 94 0 "},"Ô":{"x_min":52,"x_max":1090,"ha":1141,"o":"m 375 498 q 422 290 375 356 q 571 224 470 224 q 719 290 672 224 q 766 498 766 356 q 719 707 766 641 q 571 774 672 774 q 422 707 470 774 q 375 498 375 641 m 52 498 q 191 883 52 742 q 571 1025 330 1025 q 950 883 811 1025 q 1090 498 1090 742 q 950 113 1090 254 q 571 -28 811 -28 q 191 113 330 -28 q 52 498 52 254 m 353 1086 l 483 1337 l 657 1337 l 788 1086 l 684 1086 l 571 1220 l 457 1086 l 353 1086 "},"Ï":{"x_min":56,"x_max":472,"ha":528,"o":"m 100 0 l 100 999 l 427 999 l 427 0 l 100 0 m 302 1120 l 302 1303 l 472 1303 l 472 1120 l 302 1120 m 56 1120 l 56 1303 l 226 1303 l 226 1120 l 56 1120 "},"‹":{"x_min":45,"x_max":303,"ha":361,"o":"m 303 97 l 45 265 l 45 471 l 303 640 l 303 451 l 174 369 l 303 286 l 303 97 "},"±":{"x_min":173,"x_max":985,"ha":1157,"o":"m 985 156 l 985 -28 l 173 -28 l 173 156 l 985 156 m 674 855 l 674 645 l 985 645 l 985 461 l 674 461 l 674 251 l 484 251 l 484 461 l 173 461 l 173 645 l 484 645 l 484 855 l 674 855 "},"ì":{"x_min":27,"x_max":382,"ha":469,"o":"m 86 0 l 86 737 l 382 737 l 382 0 l 86 0 m 27 1076 l 221 1076 l 352 825 l 247 825 l 27 1076 "},"|":{"x_min":253,"x_max":444,"ha":694,"o":"m 444 1061 l 444 -328 l 253 -328 l 253 1061 l 444 1061 "},"§":{"x_min":8,"x_max":686,"ha":694,"o":"m 430 333 q 475 362 460 344 q 491 402 491 380 q 377 494 491 443 q 265 546 308 524 q 215 508 231 528 q 200 464 200 488 q 317 380 200 427 q 430 333 387 353 m 53 114 l 260 114 l 260 108 q 286 36 260 64 q 354 8 312 8 q 409 25 387 8 q 432 70 432 43 q 330 150 432 111 l 325 152 l 221 193 q 61 296 114 233 q 8 443 8 359 q 36 552 8 508 q 127 633 64 597 q 74 703 92 663 q 57 793 57 743 q 129 965 57 904 q 334 1026 202 1026 q 558 962 481 1026 q 637 776 634 898 l 425 776 q 401 843 425 818 q 340 869 378 869 q 287 854 306 869 q 269 813 269 839 q 295 766 269 788 q 377 721 321 744 l 485 675 q 635 573 584 635 q 686 430 686 511 q 655 315 686 362 q 567 245 625 268 q 628 168 608 210 q 648 76 648 126 q 570 -89 648 -28 q 357 -151 492 -151 q 130 -84 206 -151 q 53 114 54 -18 "},"q":{"x_min":43,"x_max":862,"ha":940,"o":"m 578 369 q 546 494 578 449 q 457 540 513 540 q 366 498 395 540 q 337 369 337 456 q 366 240 337 281 q 457 200 395 200 q 548 241 518 200 q 578 369 578 283 m 862 737 l 862 -296 l 577 -296 l 577 71 q 483 0 535 23 q 363 -25 430 -25 q 130 82 218 -25 q 43 366 43 189 q 131 651 43 544 q 365 758 220 758 q 497 730 440 758 q 602 641 553 702 l 602 737 l 862 737 "},"b":{"x_min":79,"x_max":897,"ha":939,"o":"m 362 360 q 394 235 362 280 q 483 191 426 191 q 571 235 539 191 q 603 360 603 280 q 573 489 603 447 q 483 531 544 531 q 391 489 421 531 q 362 360 362 447 m 79 0 l 79 999 l 365 999 l 365 659 q 461 733 408 708 q 576 758 514 758 q 809 650 721 758 q 897 365 897 543 q 809 81 897 188 q 580 -26 722 -26 q 445 2 505 -26 q 338 90 386 31 l 338 0 l 79 0 "},"®":{"x_min":69,"x_max":1088,"ha":1157,"o":"m 558 682 l 532 682 l 532 551 l 568 551 q 627 567 607 551 q 648 617 648 584 q 626 666 648 650 q 558 682 604 682 m 584 790 q 764 748 702 790 q 826 627 826 707 q 796 536 826 574 q 715 479 767 497 l 835 239 l 646 239 l 548 450 l 532 450 l 532 239 l 358 239 l 358 790 l 584 790 m 984 502 q 953 657 984 583 q 866 788 922 731 q 734 877 807 847 q 578 908 661 908 q 422 878 495 908 q 293 791 349 849 q 204 657 235 732 q 173 502 173 583 q 203 348 173 421 q 292 217 234 274 q 423 127 350 158 q 578 97 497 97 q 733 128 659 97 q 867 218 807 159 q 954 346 925 274 q 984 502 984 419 m 577 1012 q 775 974 682 1012 q 940 863 868 936 q 1049 698 1011 792 q 1088 502 1088 605 q 1050 306 1088 397 q 940 145 1012 215 q 771 32 865 72 q 577 -7 677 -7 q 384 31 476 -7 q 219 144 293 70 q 107 308 146 216 q 69 502 69 401 q 107 698 69 604 q 220 866 146 791 q 382 974 290 937 q 577 1012 473 1012 "},"L":{"x_min":94,"x_max":851,"ha":888,"o":"m 94 0 l 94 999 l 415 999 l 415 265 l 851 265 l 851 0 l 94 0 "}," ":{"x_min":0,"x_max":0,"ha":457},"∑":{"x_min":40,"x_max":1040,"ha":1074,"o":"m 54 999 l 981 999 l 981 760 l 454 760 l 833 382 l 466 -25 l 1040 -25 l 1040 -266 l 40 -266 l 40 -130 l 490 369 l 54 796 l 54 999 "},"À":{"x_min":-4,"x_max":1023,"ha":1021,"o":"m 408 342 l 609 342 l 509 687 l 408 342 m -4 0 l 347 999 l 671 999 l 1023 0 l 705 0 l 667 132 l 349 132 l 311 0 l -4 0 m 304 1337 l 498 1337 l 629 1086 l 524 1086 l 304 1337 "},"+":{"x_min":173,"x_max":985,"ha":1157,"o":"m 674 828 l 674 507 l 985 507 l 985 322 l 674 322 l 674 0 l 484 0 l 484 322 l 173 322 l 173 507 l 484 507 l 484 828 l 674 828 "},"½":{"x_min":89,"x_max":1343,"ha":1382,"o":"m 831 0 q 830 6 831 2 q 830 13 830 10 q 870 123 830 71 q 1000 230 910 175 q 1067 270 1024 246 q 1165 368 1165 327 q 1145 419 1165 401 q 1090 438 1125 438 q 1026 413 1047 438 q 1005 339 1005 388 l 1005 328 l 842 328 l 842 345 q 910 503 842 446 q 1100 561 979 561 q 1276 512 1210 561 q 1343 384 1343 464 q 1317 298 1343 332 q 1212 220 1292 263 q 1182 203 1202 214 q 1066 134 1106 163 l 1341 134 l 1341 0 l 831 0 m 343 -27 l 900 1002 l 1037 1002 l 481 -27 l 343 -27 m 227 429 l 227 746 l 89 746 l 89 859 q 214 886 173 860 q 266 975 255 913 l 406 975 l 406 429 l 227 429 "},"Ë":{"x_min":94,"x_max":912,"ha":968,"o":"m 94 0 l 94 999 l 892 999 l 892 760 l 415 760 l 415 626 l 818 626 l 818 397 l 415 397 l 415 243 l 912 243 l 912 0 l 94 0 m 523 1120 l 523 1303 l 693 1303 l 693 1120 l 523 1120 m 277 1120 l 277 1303 l 447 1303 l 447 1120 l 277 1120 "},"'":{"x_min":46,"x_max":221,"ha":267,"o":"m 221 977 l 221 595 l 46 595 l 46 977 l 221 977 "},"Š":{"x_min":47,"x_max":940,"ha":990,"o":"m 47 311 l 359 311 q 405 232 371 256 q 507 209 439 209 q 595 228 563 209 q 628 281 628 247 q 493 370 628 336 q 451 380 465 376 q 275 432 341 408 q 180 476 210 455 q 93 575 122 517 q 65 706 65 632 q 176 940 65 855 q 484 1025 288 1025 q 788 944 677 1025 q 913 712 898 863 l 608 712 q 569 777 600 755 q 479 799 537 799 q 403 782 428 799 q 378 730 378 765 q 509 648 378 681 q 526 643 520 644 q 584 629 545 638 q 812 549 758 584 q 909 448 878 504 q 940 315 940 392 q 824 60 940 149 q 492 -28 708 -28 q 177 60 294 -28 q 47 311 61 149 m 278 1337 l 382 1337 l 496 1200 l 609 1337 l 713 1337 l 582 1086 l 408 1086 l 278 1337 "},"˛":{"x_min":225,"x_max":469,"ha":694,"o":"m 428 0 q 367 -70 386 -39 q 348 -133 348 -102 q 360 -174 348 -161 q 399 -187 373 -187 l 469 -187 l 469 -317 l 418 -317 q 269 -286 313 -317 q 225 -183 225 -255 q 256 -87 225 -131 q 354 0 287 -43 l 428 0 "},"ð":{"x_min":40,"x_max":875,"ha":914,"o":"m 336 349 q 364 217 336 257 q 456 178 392 178 q 550 218 521 178 q 579 349 579 258 q 549 479 579 438 q 456 520 520 520 q 364 480 392 520 q 336 349 336 440 m 523 651 q 396 768 494 692 l 382 779 l 157 666 l 116 758 l 279 841 q 254 854 270 846 q 193 883 208 878 l 270 1023 q 355 992 305 1012 q 492 932 405 972 l 683 1029 l 729 941 l 588 869 q 804 641 734 766 q 875 359 875 516 q 765 74 875 175 q 457 -26 655 -26 q 151 72 263 -26 q 40 340 40 170 q 135 587 40 496 q 395 679 231 679 q 465 672 434 679 q 523 651 496 665 "},"ş":{"x_min":43,"x_max":810,"ha":850,"o":"m 43 232 l 328 232 q 352 162 328 185 q 424 139 376 139 q 495 154 470 139 q 520 200 520 170 q 410 273 520 249 q 395 276 401 275 q 126 371 189 320 q 63 521 63 422 q 155 701 63 639 q 425 764 248 764 q 680 705 590 764 q 785 532 771 647 l 521 532 q 492 585 517 565 q 428 605 466 605 q 369 591 389 605 q 349 553 349 578 q 448 487 349 509 q 488 479 475 482 q 749 381 689 433 q 810 229 810 329 q 711 38 810 102 q 419 -26 612 -26 q 146 38 240 -26 q 43 232 52 102 m 262 -298 l 262 -204 q 363 -227 316 -219 q 445 -235 410 -235 q 489 -223 474 -235 q 504 -185 504 -211 q 484 -153 504 -164 q 423 -143 465 -143 q 400 -143 409 -143 q 386 -144 392 -143 l 386 0 l 463 0 l 463 -57 l 475 -57 q 591 -90 551 -57 q 632 -187 632 -124 q 587 -292 632 -255 q 459 -329 542 -329 q 368 -321 418 -329 q 262 -298 319 -314 "},"ı":{"x_min":86,"x_max":382,"ha":469,"o":"m 86 0 l 86 737 l 382 737 l 382 0 l 86 0 "},"Ć":{"x_min":52,"x_max":1046,"ha":1086,"o":"m 742 386 l 1046 386 q 907 80 1032 189 q 567 -28 781 -28 q 189 112 327 -28 q 52 498 52 253 q 188 883 52 742 q 560 1025 324 1025 q 901 920 777 1025 q 1041 620 1026 815 l 734 620 q 684 735 727 696 q 564 775 641 775 q 422 706 469 775 q 375 498 375 637 q 425 291 375 361 q 572 222 475 222 q 690 264 647 222 q 742 386 734 307 m 772 1337 l 551 1086 l 447 1086 l 577 1337 l 772 1337 "},"ä":{"x_min":57,"x_max":898.875,"ha":957,"o":"m 576 329 q 464 294 534 312 q 355 216 355 265 q 376 167 355 185 q 438 150 398 150 q 545 183 511 150 q 579 291 579 217 q 578 315 579 307 q 576 329 578 322 m 604 0 l 585 70 q 464 -2 529 21 q 318 -26 399 -26 q 125 35 193 -26 q 57 208 57 96 q 124 370 57 317 q 377 446 191 422 q 441 453 401 449 q 580 525 580 468 q 554 571 580 556 q 474 586 529 586 q 404 568 428 586 q 376 513 380 550 l 90 513 q 191 700 92 637 q 484 764 291 764 q 652 747 575 764 q 772 701 729 730 q 845 621 824 666 q 867 494 867 577 l 867 83 q 875 47 867 63 q 898 21 883 31 l 898 0 l 604 0 m 534 859 l 534 1042 l 704 1042 l 704 859 l 534 859 m 288 859 l 288 1042 l 458 1042 l 458 859 l 288 859 "},"¹":{"x_min":92,"x_max":425,"ha":603,"o":"m 236 390 l 236 730 l 92 730 l 92 851 q 225 881 183 853 q 279 975 267 909 l 425 975 l 425 390 l 236 390 "},"£":{"x_min":24,"x_max":886,"ha":913,"o":"m 150 -15 l 24 200 q 140 294 103 246 q 177 400 177 342 q 175 420 177 410 q 172 440 174 429 l 51 440 l 51 561 l 131 561 q 96 640 107 602 q 86 715 86 678 q 188 921 86 845 q 467 997 291 997 q 760 907 657 997 q 865 652 863 818 l 607 652 q 574 748 604 715 q 486 781 543 781 q 408 756 438 781 q 378 694 378 732 q 387 643 378 672 q 426 561 397 615 l 571 561 l 571 440 l 446 440 q 416 354 444 395 q 331 270 389 312 q 394 284 368 280 q 439 289 420 289 q 542 269 478 289 q 633 249 606 249 q 699 263 665 249 q 773 310 732 277 l 886 79 q 779 7 839 32 q 657 -18 720 -18 q 504 18 592 -18 q 484 26 491 23 q 397 54 427 47 q 340 61 367 61 q 248 42 295 61 q 150 -15 201 23 "},"W":{"x_min":12,"x_max":1355,"ha":1368,"o":"m 252 0 l 12 999 l 324 999 l 432 354 l 559 999 l 825 999 l 945 354 l 1050 999 l 1355 999 l 1117 0 l 799 0 l 685 598 l 575 0 l 252 0 "},"Ğ":{"x_min":52,"x_max":1045,"ha":1132,"o":"m 838 0 l 822 86 q 691 0 768 28 q 513 -28 614 -28 q 175 112 298 -28 q 52 498 52 253 q 189 886 52 748 q 575 1025 327 1025 q 890 927 771 1025 q 1033 654 1010 830 l 728 654 q 668 745 709 714 q 567 777 627 777 q 422 702 470 777 q 375 482 375 628 q 423 279 375 346 q 569 212 471 212 q 689 244 640 212 q 750 333 738 277 l 606 333 l 606 547 l 1045 547 l 1045 0 l 838 0 m 354 1314 l 443 1314 q 477 1242 447 1265 q 567 1220 507 1220 q 658 1243 627 1220 q 691 1314 688 1266 l 780 1314 q 720 1155 771 1206 q 567 1105 668 1105 q 413 1156 466 1105 q 354 1314 360 1208 "},"v":{"x_min":-8,"x_max":815,"ha":807,"o":"m 249 0 l -8 737 l 283 737 l 411 294 l 536 737 l 815 737 l 577 0 l 249 0 "},">":{"x_min":179,"x_max":978,"ha":1157,"o":"m 978 509 l 978 319 l 179 -11 l 179 191 l 722 413 l 179 635 l 179 840 l 978 509 "},"û":{"x_min":74,"x_max":869,"ha":949,"o":"m 869 737 l 869 0 l 601 0 l 601 108 q 486 11 549 43 q 342 -20 422 -20 q 223 2 275 -20 q 133 68 170 24 q 87 164 101 108 q 74 355 74 221 l 74 737 l 367 737 l 367 356 q 389 240 367 272 q 466 208 411 208 q 548 245 521 208 q 576 357 576 282 l 576 737 l 869 737 m 257 825 l 387 1076 l 561 1076 l 692 825 l 588 825 l 475 959 l 361 825 l 257 825 "},"Ð":{"x_min":0,"x_max":1042,"ha":1095,"o":"m 102 0 l 102 439 l 0 439 l 0 606 l 102 606 l 102 999 l 489 999 q 708 985 637 999 q 833 942 780 972 q 989 770 937 880 q 1042 498 1042 659 q 977 213 1042 328 q 787 41 913 97 q 665 9 738 18 q 429 0 591 0 l 102 0 m 423 253 l 509 253 q 674 306 628 253 q 721 498 721 360 q 673 689 721 633 q 513 746 626 746 l 423 746 l 423 606 l 563 606 l 563 439 l 423 439 l 423 253 "},"r":{"x_min":81,"x_max":607,"ha":635,"o":"m 81 0 l 81 737 l 351 737 l 351 602 q 435 719 380 682 q 580 757 489 757 l 607 757 l 607 464 q 575 466 590 465 q 547 468 560 468 q 416 427 458 468 q 375 302 375 387 l 375 0 l 81 0 "},"Č":{"x_min":52,"x_max":1046,"ha":1086,"o":"m 742 386 l 1046 386 q 907 80 1032 189 q 567 -28 781 -28 q 189 112 327 -28 q 52 498 52 253 q 188 883 52 742 q 560 1025 324 1025 q 901 920 777 1025 q 1041 620 1026 815 l 734 620 q 684 735 727 696 q 564 775 641 775 q 422 706 469 775 q 375 498 375 637 q 425 291 375 361 q 572 222 475 222 q 690 264 647 222 q 742 386 734 307 m 347 1337 l 451 1337 l 565 1200 l 678 1337 l 782 1337 l 651 1086 l 477 1086 l 347 1337 "},"x":{"x_min":-16,"x_max":844,"ha":829,"o":"m -16 0 l 245 387 l 5 737 l 324 737 l 418 562 l 516 737 l 836 737 l 588 389 l 844 0 l 517 0 l 409 204 l 306 0 l -16 0 "},"è":{"x_min":40,"x_max":884,"ha":925,"o":"m 334 452 l 595 452 q 557 554 590 520 q 461 589 523 589 q 370 552 403 589 q 334 452 336 516 m 579 219 l 860 219 q 726 36 829 98 q 453 -26 622 -26 q 151 79 263 -26 q 40 363 40 184 q 153 656 40 549 q 464 764 267 764 q 772 647 660 764 q 884 322 884 530 l 884 305 l 334 304 q 371 195 336 233 q 469 157 406 157 q 540 173 512 157 q 579 219 568 189 m 261 1076 l 455 1076 l 586 825 l 481 825 l 261 1076 "},"Ø":{"x_min":52,"x_max":1090,"ha":1141,"o":"m 449 248 q 502 224 472 232 q 569 216 531 216 q 725 287 675 216 q 775 511 775 358 q 769 593 775 554 q 751 669 763 632 l 449 248 m 691 748 q 635 773 665 765 q 572 782 605 782 q 418 713 468 782 q 369 501 369 644 q 375 408 369 451 q 394 330 381 365 l 691 748 m 115 -38 l 210 96 q 90 271 129 174 q 52 491 52 368 q 190 882 52 740 q 570 1025 328 1025 q 713 1010 647 1025 q 837 966 778 996 l 911 1072 l 1005 1010 l 930 902 q 1050 727 1010 826 q 1090 502 1090 627 q 949 113 1090 254 q 566 -28 809 -28 q 421 -13 486 -28 q 303 30 355 1 l 208 -101 l 115 -38 "},"÷":{"x_min":172,"x_max":983,"ha":1157,"o":"m 578 251 q 664 214 628 251 q 701 127 701 177 q 664 40 701 77 q 576 4 628 4 q 489 39 525 4 q 454 127 454 75 q 490 215 454 179 q 578 251 526 251 m 983 507 l 983 322 l 172 322 l 172 507 l 983 507 m 578 825 q 664 787 628 825 q 701 700 701 750 q 664 614 701 650 q 576 578 628 578 q 489 613 525 578 q 454 700 454 649 q 490 788 454 752 q 578 825 526 825 "},"h":{"x_min":79,"x_max":875,"ha":949,"o":"m 79 0 l 79 999 l 372 999 l 372 658 q 473 732 416 708 q 598 757 530 757 q 722 734 669 757 q 813 668 776 712 q 861 569 847 628 q 875 383 875 510 l 875 0 l 582 0 l 582 381 q 559 497 582 465 q 482 529 537 529 q 399 492 426 529 q 372 380 372 455 l 372 0 l 79 0 "},".":{"x_min":81,"x_max":375,"ha":457,"o":"m 81 0 l 81 300 l 375 300 l 375 0 l 81 0 "},"f":{"x_min":15,"x_max":524,"ha":533,"o":"m 107 0 l 107 571 l 15 571 l 15 737 l 107 737 l 107 783 q 168 964 107 906 q 359 1023 229 1023 l 524 1023 l 524 838 q 508 839 518 838 q 493 840 498 840 q 418 822 439 840 q 397 759 397 804 q 398 748 397 755 q 399 737 399 741 l 524 737 l 524 571 l 399 571 l 399 0 l 107 0 "},"“":{"x_min":82,"x_max":688,"ha":770,"o":"m 82 508 l 82 764 q 150 941 82 873 q 346 1025 219 1008 l 346 908 q 256 864 283 895 q 229 775 229 833 l 346 775 l 346 508 l 82 508 m 424 508 l 424 764 q 492 941 424 873 q 688 1025 560 1008 l 688 908 q 599 864 625 895 q 573 775 573 833 l 688 775 l 688 508 l 424 508 "},"A":{"x_min":-4,"x_max":1023,"ha":1021,"o":"m 408 342 l 609 342 l 509 687 l 408 342 m -4 0 l 347 999 l 671 999 l 1023 0 l 705 0 l 667 132 l 349 132 l 311 0 l -4 0 "},"O":{"x_min":52,"x_max":1090,"ha":1141,"o":"m 375 498 q 422 290 375 356 q 571 224 470 224 q 719 290 672 224 q 766 498 766 356 q 719 707 766 641 q 571 774 672 774 q 422 707 470 774 q 375 498 375 641 m 52 498 q 191 883 52 742 q 571 1025 330 1025 q 950 883 811 1025 q 1090 498 1090 742 q 950 113 1090 254 q 571 -28 811 -28 q 191 113 330 -28 q 52 498 52 254 "},"π":{"x_min":28,"x_max":1154,"ha":1164,"o":"m 1126 574 l 1004 574 l 923 0 l 640 0 l 720 574 l 566 574 l 486 0 l 202 0 l 283 574 l 263 574 q 224 548 242 574 q 202 484 207 523 l 28 484 q 114 683 52 630 q 326 737 176 737 l 1154 737 l 1126 574 "},"‘":{"x_min":82,"x_max":346,"ha":428,"o":"m 82 505 l 82 760 q 150 938 82 870 q 346 1023 219 1006 l 346 906 q 256 861 283 892 q 229 772 229 830 l 346 772 l 346 505 l 82 505 "},"3":{"x_min":46,"x_max":860,"ha":913,"o":"m 46 344 l 312 344 q 348 236 314 271 q 450 201 382 201 q 540 230 509 201 q 572 315 572 259 q 534 397 572 371 q 414 423 497 423 l 390 423 l 390 591 l 410 591 q 527 616 488 591 q 566 691 566 641 q 538 758 566 735 q 457 781 510 781 q 366 754 397 781 q 332 674 335 727 l 70 674 q 180 912 72 822 q 464 1002 287 1002 q 733 924 632 1002 q 835 718 835 846 q 808 605 835 653 q 727 528 781 557 q 827 448 794 502 q 860 310 860 394 q 749 61 860 151 q 441 -28 638 -28 q 152 67 259 -28 q 46 324 46 162 l 46 344 "},"9":{"x_min":26,"x_max":868,"ha":913,"o":"m 569 649 q 534 746 569 711 q 439 782 500 782 q 346 746 380 782 q 312 651 312 711 q 345 554 312 589 q 438 519 379 519 q 533 554 498 519 q 569 649 569 589 m 579 402 q 486 348 541 366 q 362 331 431 331 q 117 418 209 331 q 26 651 26 505 q 133 906 26 812 q 427 1000 240 1000 q 756 871 645 1000 q 868 490 868 743 q 751 110 868 246 q 427 -25 634 -25 q 171 46 272 -25 q 44 244 71 117 l 310 255 q 352 196 322 216 q 424 176 381 176 q 535 232 496 176 q 579 402 573 288 "},"l":{"x_min":86,"x_max":382,"ha":469,"o":"m 86 0 l 86 999 l 382 999 l 382 0 l 86 0 "},"":{"x_min":16,"x_max":898,"ha":978,"o":"m 602 812 l 602 1023 l 898 1023 l 898 812 l 602 812 m 108 0 l 108 571 l 16 571 l 16 737 l 108 737 l 108 782 q 169 964 108 906 q 360 1023 230 1023 l 525 1023 l 525 838 q 509 839 519 838 q 494 840 499 840 q 419 822 440 840 q 398 759 398 804 q 399 748 398 755 q 400 737 400 741 l 525 737 l 525 571 l 400 571 l 400 0 l 108 0 m 602 0 l 602 737 l 898 737 l 898 0 l 602 0 "},"4":{"x_min":35,"x_max":875,"ha":913,"o":"m 254 424 l 489 424 l 489 708 l 254 424 m 483 0 l 483 203 l 35 203 l 35 438 l 489 974 l 760 974 l 760 424 l 875 424 l 875 203 l 760 203 l 760 0 l 483 0 "},"Ü":{"x_min":92,"x_max":1039,"ha":1132,"o":"m 92 999 l 413 999 l 413 383 q 448 261 413 297 q 567 225 484 225 q 683 260 648 225 q 718 383 718 296 l 718 999 l 1039 999 l 1039 357 q 918 71 1039 170 q 567 -28 797 -28 q 214 71 336 -28 q 92 357 92 170 l 92 999 m 605 1120 l 605 1303 l 775 1303 l 775 1120 l 605 1120 m 359 1120 l 359 1303 l 529 1303 l 529 1120 l 359 1120 "},"à":{"x_min":57,"x_max":898.875,"ha":957,"o":"m 576 329 q 464 294 534 312 q 355 216 355 265 q 376 167 355 185 q 438 150 398 150 q 545 183 511 150 q 579 291 579 217 q 578 315 579 307 q 576 329 578 322 m 604 0 l 585 70 q 464 -2 529 21 q 318 -26 399 -26 q 125 35 193 -26 q 57 208 57 96 q 124 370 57 317 q 377 446 191 422 q 441 453 401 449 q 580 525 580 468 q 554 571 580 556 q 474 586 529 586 q 404 568 428 586 q 376 513 380 550 l 90 513 q 191 700 92 637 q 484 764 291 764 q 652 747 575 764 q 772 701 729 730 q 845 621 824 666 q 867 494 867 577 l 867 83 q 875 47 867 63 q 898 21 883 31 l 898 0 l 604 0 m 289 1076 l 483 1076 l 614 825 l 509 825 l 289 1076 "},"ó":{"x_min":40,"x_max":873,"ha":914,"o":"m 336 370 q 364 222 336 267 q 456 178 392 178 q 550 223 521 178 q 579 370 579 268 q 550 515 579 471 q 456 560 521 560 q 364 515 392 560 q 336 370 336 471 m 40 370 q 151 658 40 553 q 456 764 262 764 q 762 658 651 764 q 873 370 873 553 q 761 79 873 185 q 456 -26 650 -26 q 151 79 262 -26 q 40 370 40 185 m 664 1076 l 443 825 l 339 825 l 469 1076 l 664 1076 "}}}
